<?xml version="1.0" standalone="no"?>
<!DOCTYPE svg PUBLIC "-//W3C//DTD SVG 20010904//EN"
 "http://www.w3.org/TR/2001/REC-SVG-20010904/DTD/svg10.dtd">
<svg version="1.0" xmlns="http://www.w3.org/2000/svg"
 width="186.000000pt" height="137.000000pt" viewBox="0 0 186.000000 137.000000"
 preserveAspectRatio="xMidYMid meet">
<metadata>
Created by potrace 1.11, written by Peter Selinger 2001-2013
</metadata>
<g transform="translate(0.000000,137.000000) scale(0.100000,-0.100000)"
fill="#000000" stroke="none">
<path d="M0 685 l0 -685 930 0 930 0 0 685 0 685 -930 0 -930 0 0 -685z m800
395 c0 -5 9 -10 20 -10 11 0 20 5 20 10 0 6 5 10 11 10 6 0 9 -6 6 -12 -2 -8
-22 -13 -48 -14 -24 -1 -59 -2 -77 -2 l-33 -2 1 -315 c1 -173 -1 -319 -5 -325
-4 -7 -12 -7 -24 0 -10 5 -21 7 -23 4 -11 -10 -48 -12 -54 -3 -3 5 -35 9 -70
8 l-65 -2 28 -18 c15 -11 22 -19 16 -19 -7 0 -13 -10 -13 -22 0 -21 0 -21 -23
3 -25 26 -27 40 -3 20 9 -8 16 -8 20 -2 8 12 -30 35 -62 38 -15 1 -20 -2 -15
-10 4 -7 0 -6 -10 2 -11 9 -17 10 -17 2 0 -6 -5 -11 -11 -11 -5 0 -7 5 -4 11
5 6 -9 9 -40 8 -49 -3 -67 -15 -44 -30 13 -8 10 -11 -7 -8 -4 0 -11 -5 -15
-13 -6 -8 -7 -1 -3 18 l6 30 -51 3 c-32 1 -51 -2 -51 -9 0 -6 -5 -8 -12 -3 -7
4 -29 8 -48 8 l-35 1 0 238 c0 156 4 241 11 247 6 4 28 10 50 11 33 3 39 7 36
25 -2 18 2 21 28 19 16 -1 36 2 43 7 8 6 7 7 -5 3 -12 -3 -18 0 -18 10 0 8 5
12 10 9 6 -3 10 1 10 10 0 9 -4 13 -10 10 -6 -4 -10 5 -10 19 0 19 -5 26 -19
26 -31 0 -34 18 -4 23 63 9 613 7 613 -3z m239 -226 c7 5 12 -4 12 -26 2 -29
3 -29 6 -7 4 26 45 51 42 26 -3 -28 2 -67 9 -67 4 0 7 18 5 41 -1 30 1 38 10
31 7 -5 21 -6 32 -2 41 16 73 -43 38 -71 -15 -13 -16 -11 -11 11 4 14 3 32 0
41 -10 24 -52 6 -52 -21 0 -12 9 -24 23 -29 19 -8 18 -9 -13 -10 -19 0 -61 -2
-92 -4 -32 -1 -58 0 -58 3 0 5 -68 4 -80 0 -3 -2 -9 -1 -15 0 -5 1 -22 2 -37
2 -23 -1 -28 4 -29 26 l-2 27 -4 -27 c-4 -23 -9 -28 -34 -28 -28 0 -29 1 -27
48 l1 47 7 -45 7 -45 1 42 c2 30 6 41 15 37 8 -3 12 -18 10 -42 -2 -27 0 -31
5 -14 4 13 12 23 17 23 6 0 13 -10 17 -23 5 -20 6 -19 7 9 1 25 7 33 32 42 41
14 50 14 48 -1 -3 -29 2 -68 9 -68 4 0 7 17 5 38 -1 34 1 37 26 38 24 1 27 -2
23 -20 -3 -11 -7 -15 -10 -8 -5 17 -19 15 -26 -3 -9 -25 3 -42 32 -42 26 0 27
2 25 46 -2 29 1 41 6 32 5 -7 14 -10 20 -7z m315 -274 c24 3 58 5 77 3 37 -3
117 -3 164 0 17 1 35 -1 41 -6 7 -4 19 -1 28 9 14 13 22 14 45 5 15 -7 32 -11
37 -10 5 1 14 0 19 -1 6 -1 21 -3 35 -3 16 -1 25 -8 26 -20 1 -12 1 -13 -3 -2
-6 19 -43 20 -43 1 0 -13 27 -31 43 -28 4 1 7 -2 7 -6 0 -4 -18 -8 -41 -9 -33
-2 -38 1 -30 11 16 19 4 43 -24 48 -20 4 -23 1 -21 -29 1 -18 -2 -33 -6 -33
-5 0 -8 18 -8 40 0 22 -4 40 -10 40 -5 0 -10 -4 -10 -9 0 -5 -10 -11 -21 -14
-17 -5 -20 -11 -17 -31 3 -14 2 -26 -3 -26 -4 0 -9 12 -11 27 -2 19 -10 29
-23 31 -15 2 -16 1 -7 -6 11 -7 10 -10 -3 -16 -11 -4 -15 -12 -11 -22 5 -12 2
-15 -10 -10 -8 3 -18 6 -20 6 -2 0 -4 5 -4 11 0 5 4 8 8 5 4 -2 8 4 8 15 0 12
-7 19 -21 19 -16 0 -17 -2 -5 -10 14 -9 7 -14 -13 -11 -5 1 -6 -8 -2 -19 4
-11 2 -20 -4 -20 -6 0 -11 14 -11 30 0 25 -4 30 -25 30 -21 0 -25 -5 -26 -32
l-1 -33 -7 30 c-4 21 -13 31 -29 33 -15 2 -23 -1 -21 -10 4 -29 -2 -46 -16
-52 -9 -3 -15 0 -15 10 0 8 4 13 9 10 5 -3 8 5 7 19 -1 26 -16 36 -16 10 0 -8
-4 -15 -10 -15 -5 0 -10 7 -10 15 0 8 -5 15 -11 15 -7 0 -8 -7 -4 -17 4 -10 9
-24 12 -30 3 -7 1 -13 -4 -13 -6 0 -18 18 -28 40 -10 22 -21 40 -26 40 -4 0
-14 -19 -23 -42 -15 -40 -16 -28 -2 31 5 23 40 32 44 11 2 -14 10 -16 46 -10z"/>
</g>
</svg>
