<?xml version="1.0" encoding="UTF-8" standalone="no"?>
<!-- Created with Inkscape (http://www.inkscape.org/) -->

<svg
   xmlns:dc="http://purl.org/dc/elements/1.1/"
   xmlns:cc="http://creativecommons.org/ns#"
   xmlns:rdf="http://www.w3.org/1999/02/22-rdf-syntax-ns#"
   xmlns:svg="http://www.w3.org/2000/svg"
   xmlns="http://www.w3.org/2000/svg"
   xmlns:sodipodi="http://sodipodi.sourceforge.net/DTD/sodipodi-0.dtd"
   xmlns:inkscape="http://www.inkscape.org/namespaces/inkscape"
   id="svg2"
   version="1.1"
   inkscape:version="0.48.2 r9819"
   width="120"
   height="30"
   xml:space="preserve"
   sodipodi:docname="58.svg"><metadata
     id="metadata8"><rdf:RDF><cc:Work
         rdf:about=""><dc:format>image/svg+xml</dc:format><dc:type
           rdf:resource="http://purl.org/dc/dcmitype/StillImage" /><dc:title></dc:title></cc:Work></rdf:RDF></metadata><defs
     id="defs6"><clipPath
       clipPathUnits="userSpaceOnUse"
       id="clipPath16"><path
         d="m 0,595.276 841.89,0 L 841.89,0 0,0 0,595.276 z"
         id="path18"
         inkscape:connector-curvature="0" /></clipPath><clipPath
       clipPathUnits="userSpaceOnUse"
       id="clipPath70"><path
         d="m 316.113,326.237 c 0,0.088 0.073,0.16 0.161,0.16 0.088,0 0.161,-0.072 0.161,-0.16 0,-0.09 -0.073,-0.16 -0.161,-0.16 -0.088,0 -0.161,0.07 -0.161,0.16"
         id="path72"
         inkscape:connector-curvature="0" /></clipPath><clipPath
       clipPathUnits="userSpaceOnUse"
       id="clipPath140"><path
         d="m 316.272,323.833 c -0.422,0 -0.803,0.039 -1.095,0.119 0.292,0.079 0.673,0.128 1.095,0.129 0.423,-0.001 0.808,-0.05 1.098,-0.129 -0.29,-0.08 -0.675,-0.119 -1.098,-0.119"
         id="path142"
         inkscape:connector-curvature="0" /></clipPath><clipPath
       clipPathUnits="userSpaceOnUse"
       id="clipPath306"><path
         d="m 314.862,321.537 2.823,0 0,-14.6 -2.823,0 0,14.6 z"
         id="path308"
         inkscape:connector-curvature="0" /></clipPath><clipPath
       clipPathUnits="userSpaceOnUse"
       id="clipPath436"><path
         d="m 342.171,323.833 c -0.422,0 -0.805,0.039 -1.096,0.119 0.291,0.079 0.674,0.128 1.096,0.129 0.422,-0.001 0.807,-0.05 1.097,-0.129 -0.29,-0.08 -0.675,-0.119 -1.097,-0.119"
         id="path438"
         inkscape:connector-curvature="0" /></clipPath><clipPath
       clipPathUnits="userSpaceOnUse"
       id="clipPath538"><path
         d="m 342.013,326.07 c 0,0.089 0.072,0.16 0.16,0.16 0.088,0 0.16,-0.071 0.16,-0.16 0,-0.088 -0.072,-0.161 -0.16,-0.161 -0.088,0 -0.16,0.073 -0.16,0.161"
         id="path540"
         inkscape:connector-curvature="0" /></clipPath><clipPath
       clipPathUnits="userSpaceOnUse"
       id="clipPath622"><path
         d="m 343.594,321.537 -2.822,0 0,-14.6 2.822,0 0,14.6 z"
         id="path624"
         inkscape:connector-curvature="0" /></clipPath><clipPath
       clipPathUnits="userSpaceOnUse"
       id="clipPath680"><path
         d="m 329.199,324.123 c -1.921,0.004 -3.658,0.235 -4.98,0.598 1.322,0.362 3.059,0.584 4.98,0.586 1.922,-0.002 3.667,-0.224 4.989,-0.586 -1.322,-0.363 -3.067,-0.594 -4.989,-0.598"
         id="path682"
         inkscape:connector-curvature="0" /></clipPath><clipPath
       clipPathUnits="userSpaceOnUse"
       id="clipPath912"><path
         d="m 328.419,334.623 c 0,0.425 0.345,0.77 0.769,0.77 0.423,0 0.769,-0.345 0.769,-0.77 0,-0.425 -0.346,-0.769 -0.769,-0.769 -0.424,0 -0.769,0.344 -0.769,0.769"
         id="path914"
         inkscape:connector-curvature="0" /></clipPath><clipPath
       clipPathUnits="userSpaceOnUse"
       id="clipPath928"><path
         d="m 328.419,334.623 c 0,0.425 0.345,0.77 0.769,0.77 0.423,0 0.769,-0.345 0.769,-0.77 0,-0.425 -0.346,-0.769 -0.769,-0.769 -0.424,0 -0.769,0.344 -0.769,0.769"
         id="path930"
         inkscape:connector-curvature="0" /></clipPath><clipPath
       clipPathUnits="userSpaceOnUse"
       id="clipPath956"><path
         d="m 329.233,307.625 c 0,-2.413 -1.935,-4.368 -4.348,-4.368 -2.412,0 -4.368,1.955 -4.368,4.368 l 0,6.114 8.716,0 0,-6.114 z"
         id="path958"
         inkscape:connector-curvature="0" /></clipPath></defs><sodipodi:namedview
     pagecolor="#ffffff"
     bordercolor="#666666"
     borderopacity="1"
     objecttolerance="10"
     gridtolerance="10"
     guidetolerance="10"
     inkscape:pageopacity="0"
     inkscape:pageshadow="2"
     inkscape:window-width="1648"
     inkscape:window-height="948"
     id="namedview4"
     showgrid="false"
     fit-margin-top="0"
     fit-margin-left="0"
     fit-margin-right="0"
     fit-margin-bottom="0"
     inkscape:zoom="4.2722495"
     inkscape:cx="115.94304"
     inkscape:cy="21.059751"
     inkscape:window-x="272"
     inkscape:window-y="0"
     inkscape:window-maximized="0"
     inkscape:current-layer="g10" /><g
     id="g10"
     inkscape:groupmode="layer"
     inkscape:label="58"
     transform="matrix(1.25,0,0,-1.25,-382.9175,397.24875)"><path
       d="m 311.28572,296.87119 -0.246,-0.409 -0.045,0.029 c 0.01,0.033 0.016,0.057 0.016,0.07 0,0.051 -0.072,0.106 -0.213,0.178 -0.195,0.097 -0.41,0.138 -0.641,0.138 -0.308,0 -0.562,-0.083 -0.756,-0.255 -0.199,-0.176 -0.294,-0.404 -0.294,-0.682 0,-0.275 0.101,-0.506 0.306,-0.689 0.197,-0.182 0.44,-0.274 0.733,-0.274 0.283,0 0.533,0.088 0.748,0.25 0.099,0.077 0.146,0.125 0.146,0.157 0,0.019 -0.008,0.045 -0.027,0.08 l 0.039,0.031 0.299,-0.361 -0.043,-0.034 c -0.032,0.032 -0.055,0.043 -0.076,0.043 -0.012,0 -0.036,-0.011 -0.063,-0.037 -0.103,-0.072 -0.187,-0.133 -0.256,-0.17 -0.068,-0.037 -0.138,-0.07 -0.221,-0.095 -0.166,-0.059 -0.347,-0.088 -0.544,-0.088 -0.385,0 -0.696,0.105 -0.934,0.316 -0.254,0.227 -0.379,0.51 -0.379,0.86 0,0.275 0.078,0.505 0.236,0.711 0.245,0.311 0.616,0.468 1.11,0.468 0.322,0 0.636,-0.083 0.941,-0.262 0.022,-0.008 0.035,-0.01 0.041,-0.01 0.016,0 0.043,0.017 0.078,0.064 l 0.045,-0.029 z"
       style="fill:#231f20;fill-opacity:1;fill-rule:nonzero;stroke:none"
       id="path1456"
       inkscape:connector-curvature="0" /><path
       d="m 312.80572,296.50719 c -0.274,0 -0.49,-0.08 -0.655,-0.248 -0.144,-0.149 -0.218,-0.325 -0.218,-0.532 0,-0.212 0.074,-0.386 0.218,-0.533 0.165,-0.164 0.383,-0.252 0.657,-0.252 0.277,0 0.496,0.088 0.658,0.252 0.144,0.147 0.219,0.317 0.219,0.522 0,0.218 -0.075,0.398 -0.219,0.543 -0.164,0.164 -0.385,0.244 -0.66,0.248 m 0,0.195 c 0.33,0 0.597,-0.084 0.802,-0.264 0.219,-0.179 0.327,-0.422 0.327,-0.722 0,-0.188 -0.053,-0.364 -0.16,-0.522 -0.202,-0.291 -0.524,-0.441 -0.967,-0.441 -0.33,0 -0.594,0.088 -0.799,0.258 -0.219,0.183 -0.326,0.423 -0.326,0.716 0,0.196 0.052,0.373 0.158,0.532 0.113,0.166 0.269,0.287 0.473,0.359 0.138,0.055 0.302,0.081 0.492,0.084"
       style="fill:#231f20;fill-opacity:1;fill-rule:nonzero;stroke:none"
       id="path1458"
       inkscape:connector-curvature="0" /><path
       d="m 314.59272,296.36819 0,-1.391 c 0,-0.041 0.008,-0.074 0.021,-0.095 0.014,-0.016 0.041,-0.035 0.084,-0.041 l 0,-0.049 -0.41,0 0,0.049 c 0.045,0.006 0.072,0.025 0.086,0.041 0.012,0.021 0.022,0.054 0.022,0.095 l 0,1.495 c 0,0.052 -0.01,0.084 -0.024,0.099 -0.014,0.018 -0.041,0.033 -0.084,0.047 l 0,0.039 0.608,0 0,-0.039 c -0.057,-0.023 -0.088,-0.051 -0.088,-0.09 0,-0.033 0.019,-0.068 0.062,-0.121 l 1.104,-1.234 0,1.299 c 0,0.052 -0.01,0.084 -0.026,0.099 -0.013,0.018 -0.041,0.033 -0.084,0.047 l 0,0.039 0.412,0 0,-0.039 c -0.043,-0.014 -0.07,-0.029 -0.084,-0.047 -0.013,-0.015 -0.021,-0.047 -0.021,-0.099 l 0,-1.495 c 0,-0.041 0.008,-0.074 0.02,-0.095 0.013,-0.016 0.042,-0.035 0.085,-0.041 l 0,-0.049 -0.49,0 0,0.049 c 0.061,0.009 0.09,0.037 0.09,0.066 0,0.027 -0.027,0.066 -0.08,0.127 l -1.203,1.334 z"
       style="fill:#231f20;fill-opacity:1;fill-rule:nonzero;stroke:none"
       id="path1460"
       inkscape:connector-curvature="0" /><path
       d="m 318.44972,296.56119 -0.183,-0.359 -0.039,0.018 c 0.004,0.033 0.005,0.056 0.005,0.068 0,0.025 -0.035,0.057 -0.107,0.098 -0.15,0.08 -0.338,0.121 -0.559,0.121 -0.175,0 -0.326,-0.034 -0.449,-0.098 -0.123,-0.068 -0.183,-0.162 -0.183,-0.279 0,-0.049 0.013,-0.102 0.045,-0.147 0.031,-0.039 0.072,-0.07 0.125,-0.088 0.052,-0.017 0.109,-0.029 0.17,-0.037 0.062,0 0.191,-0.011 0.392,-0.017 0.17,-0.006 0.297,-0.014 0.381,-0.032 0.086,-0.013 0.158,-0.043 0.221,-0.078 0.066,-0.031 0.117,-0.09 0.154,-0.158 0.039,-0.066 0.057,-0.142 0.057,-0.225 0,-0.175 -0.073,-0.31 -0.211,-0.412 -0.168,-0.121 -0.393,-0.183 -0.672,-0.183 -0.141,0 -0.283,0.025 -0.436,0.064 -0.152,0.041 -0.291,0.098 -0.422,0.174 -0.019,0.012 -0.033,0.016 -0.041,0.016 -0.015,0 -0.043,-0.02 -0.076,-0.063 l -0.035,0.029 0.209,0.354 0.043,-0.02 c -0.004,-0.017 -0.008,-0.025 -0.01,-0.029 -0.004,-0.019 -0.006,-0.031 -0.006,-0.047 0,-0.031 0.055,-0.074 0.17,-0.133 0.19,-0.101 0.389,-0.156 0.594,-0.156 0.188,0 0.346,0.033 0.471,0.1 0.056,0.029 0.105,0.076 0.14,0.125 0.034,0.056 0.053,0.111 0.053,0.17 0,0.049 -0.016,0.099 -0.045,0.142 -0.029,0.043 -0.07,0.069 -0.117,0.09 -0.047,0.018 -0.096,0.026 -0.154,0.035 -0.055,0.002 -0.16,0.012 -0.317,0.018 -0.183,0.008 -0.312,0.018 -0.392,0.025 -0.078,0.012 -0.155,0.028 -0.225,0.053 -0.086,0.031 -0.16,0.088 -0.213,0.158 -0.056,0.076 -0.082,0.162 -0.082,0.264 0,0.18 0.082,0.318 0.244,0.424 0.164,0.103 0.375,0.156 0.631,0.156 0.233,0 0.467,-0.053 0.701,-0.156 0.037,-0.018 0.059,-0.022 0.063,-0.022 0.017,0 0.039,0.018 0.062,0.063 l 0.043,-0.026 z"
       style="fill:#231f20;fill-opacity:1;fill-rule:nonzero;stroke:none"
       id="path1462"
       inkscape:connector-curvature="0" /><path
       d="m 319.13172,295.66919 0,-0.696 1.152,0 c 0.047,0 0.078,0.004 0.1,0.024 0.019,0.01 0.035,0.041 0.045,0.082 l 0.045,0 0,-0.391 -0.045,0 c -0.01,0.039 -0.026,0.067 -0.043,0.088 -0.02,0.008 -0.051,0.016 -0.1,0.016 l -1.498,0 0,0.049 c 0.043,0.006 0.072,0.025 0.086,0.041 0.014,0.021 0.02,0.054 0.02,0.095 l 0,1.495 c 0,0.052 -0.006,0.084 -0.022,0.099 -0.014,0.018 -0.041,0.033 -0.084,0.047 l 0,0.039 1.488,0 c 0.045,0 0.079,0.01 0.098,0.025 0.02,0.014 0.033,0.04 0.043,0.086 l 0.047,0 0,-0.396 -0.047,0 c -0.01,0.045 -0.023,0.072 -0.043,0.09 -0.019,0.01 -0.053,0.017 -0.098,0.017 l -1.144,0 0,-0.631 0.726,0 c 0.047,0 0.081,0.01 0.102,0.022 0.018,0.016 0.033,0.043 0.043,0.082 l 0.045,0 0,-0.391 -0.045,0 c -0.01,0.045 -0.025,0.073 -0.047,0.086 -0.019,0.014 -0.053,0.022 -0.098,0.022 l -0.726,0 z"
       style="fill:#231f20;fill-opacity:1;fill-rule:nonzero;stroke:none"
       id="path1464"
       inkscape:connector-curvature="0" /><path
       d="m 320.62972,294.85019 0.187,0.399 0.043,-0.022 c -0.009,-0.033 -0.013,-0.064 -0.013,-0.074 0,-0.021 0.01,-0.035 0.031,-0.053 0.055,-0.043 0.131,-0.084 0.225,-0.109 0.095,-0.027 0.189,-0.049 0.281,-0.049 0.082,0 0.156,0.022 0.221,0.051 0.064,0.027 0.109,0.068 0.136,0.123 0.032,0.049 0.045,0.158 0.045,0.315 l 0,1.041 c 0,0.052 -0.006,0.084 -0.019,0.099 -0.016,0.018 -0.045,0.033 -0.084,0.047 l 0,0.039 0.447,0 0,-0.039 c -0.041,-0.014 -0.07,-0.029 -0.082,-0.047 -0.016,-0.015 -0.023,-0.047 -0.023,-0.099 l 0,-1.088 c 0,-0.106 -0.008,-0.192 -0.026,-0.256 -0.017,-0.069 -0.045,-0.123 -0.084,-0.174 -0.053,-0.063 -0.125,-0.109 -0.215,-0.145 -0.092,-0.035 -0.187,-0.056 -0.295,-0.056 -0.088,0 -0.191,0.012 -0.308,0.033 -0.119,0.031 -0.217,0.061 -0.307,0.094 -0.017,0.01 -0.031,0.017 -0.045,0.017 -0.025,0 -0.051,-0.019 -0.072,-0.06 l -0.043,0.013 z"
       style="fill:#231f20;fill-opacity:1;fill-rule:nonzero;stroke:none"
       id="path1466"
       inkscape:connector-curvature="0" /><path
       d="m 323.57072,296.50719 c -0.273,0 -0.492,-0.08 -0.656,-0.248 -0.142,-0.149 -0.217,-0.325 -0.217,-0.532 0,-0.212 0.075,-0.386 0.217,-0.533 0.164,-0.164 0.385,-0.252 0.658,-0.252 0.276,0 0.494,0.088 0.659,0.252 0.146,0.147 0.216,0.317 0.216,0.522 0,0.218 -0.07,0.398 -0.216,0.543 -0.165,0.164 -0.385,0.244 -0.661,0.248 m 0,0.195 c 0.33,0 0.6,-0.084 0.801,-0.264 0.219,-0.179 0.328,-0.422 0.328,-0.722 0,-0.188 -0.052,-0.364 -0.16,-0.522 -0.201,-0.291 -0.523,-0.441 -0.967,-0.441 -0.328,0 -0.595,0.088 -0.797,0.258 -0.218,0.183 -0.328,0.423 -0.328,0.716 0,0.196 0.055,0.373 0.159,0.532 0.113,0.166 0.269,0.287 0.47,0.359 0.143,0.055 0.305,0.081 0.494,0.084"
       style="fill:#231f20;fill-opacity:1;fill-rule:nonzero;stroke:none"
       id="path1468"
       inkscape:connector-curvature="0" /><path
       d="m 328.09072,296.93219 -0.238,-0.435 -0.047,0.027 c 0.019,0.049 0.029,0.078 0.029,0.094 0,0.031 -0.041,0.066 -0.123,0.103 -0.227,0.108 -0.461,0.156 -0.711,0.156 -0.205,0 -0.385,-0.037 -0.537,-0.112 -0.072,-0.038 -0.131,-0.083 -0.174,-0.147 -0.041,-0.061 -0.062,-0.123 -0.062,-0.189 0,-0.057 0.015,-0.11 0.048,-0.157 0.036,-0.052 0.077,-0.088 0.131,-0.113 0.063,-0.025 0.131,-0.049 0.213,-0.055 0.082,-0.013 0.215,-0.021 0.401,-0.023 0.255,-0.01 0.435,-0.022 0.546,-0.035 0.11,-0.018 0.198,-0.047 0.272,-0.09 0.187,-0.1 0.281,-0.262 0.281,-0.477 0,-0.205 -0.086,-0.379 -0.258,-0.506 -0.189,-0.148 -0.449,-0.22 -0.783,-0.22 -0.191,0 -0.357,0.023 -0.502,0.06 -0.144,0.034 -0.314,0.108 -0.515,0.215 -0.053,0.026 -0.086,0.039 -0.096,0.039 -0.018,0 -0.043,-0.023 -0.08,-0.06 l -0.045,0.027 0.25,0.416 0.049,-0.027 c -0.022,-0.041 -0.033,-0.071 -0.033,-0.086 0,-0.039 0.072,-0.09 0.214,-0.168 0.127,-0.069 0.248,-0.112 0.37,-0.141 0.117,-0.031 0.244,-0.051 0.382,-0.051 0.282,0 0.496,0.065 0.641,0.186 0.098,0.086 0.144,0.184 0.144,0.297 0,0.146 -0.082,0.252 -0.25,0.305 -0.05,0.021 -0.107,0.031 -0.162,0.039 -0.06,0.005 -0.218,0.011 -0.486,0.023 -0.191,0.004 -0.344,0.02 -0.451,0.043 -0.108,0.02 -0.203,0.053 -0.289,0.103 -0.08,0.043 -0.141,0.108 -0.188,0.186 -0.045,0.078 -0.066,0.168 -0.066,0.262 0,0.166 0.06,0.297 0.178,0.417 0.089,0.083 0.213,0.153 0.369,0.195 0.156,0.056 0.328,0.075 0.513,0.075 0.155,0 0.295,-0.017 0.424,-0.049 0.131,-0.03 0.28,-0.078 0.442,-0.155 0.039,-0.013 0.062,-0.023 0.072,-0.023 0.018,0 0.045,0.023 0.08,0.069 l 0.047,-0.018 z"
       style="fill:#231f20;fill-opacity:1;fill-rule:nonzero;stroke:none"
       id="path1470"
       inkscape:connector-curvature="0" /><path
       d="m 328.76272,296.47219 0,-0.961 c 0,-0.145 0.01,-0.25 0.023,-0.303 0.014,-0.055 0.045,-0.108 0.096,-0.141 0.098,-0.082 0.269,-0.125 0.51,-0.125 0.267,0 0.451,0.055 0.545,0.151 0.035,0.039 0.056,0.08 0.07,0.134 0.01,0.057 0.016,0.151 0.016,0.284 l 0,0.961 c 0,0.05 -0.008,0.082 -0.022,0.099 -0.014,0.018 -0.041,0.033 -0.086,0.047 l 0,0.039 0.41,0 0,-0.039 c -0.041,-0.014 -0.068,-0.029 -0.082,-0.047 -0.015,-0.015 -0.023,-0.047 -0.023,-0.099 l 0,-1.006 c 0,-0.174 -0.014,-0.295 -0.041,-0.366 -0.049,-0.119 -0.141,-0.203 -0.27,-0.259 -0.131,-0.059 -0.308,-0.088 -0.537,-0.088 -0.326,0 -0.555,0.062 -0.685,0.183 -0.065,0.059 -0.106,0.123 -0.129,0.196 -0.018,0.066 -0.032,0.181 -0.032,0.334 l 0,1.006 c 0,0.052 -0.005,0.084 -0.019,0.099 -0.016,0.018 -0.045,0.033 -0.086,0.047 l 0,0.039 0.449,0 0,-0.039 c -0.043,-0.014 -0.07,-0.029 -0.084,-0.047 -0.013,-0.017 -0.023,-0.049 -0.023,-0.099"
       style="fill:#231f20;fill-opacity:1;fill-rule:nonzero;stroke:none"
       id="path1472"
       inkscape:connector-curvature="0" /><path
       d="m 331.03572,295.81319 0.656,0 c 0.118,0 0.208,0.008 0.262,0.014 0.057,0.012 0.104,0.031 0.147,0.057 0.078,0.05 0.115,0.138 0.115,0.263 0,0.125 -0.037,0.213 -0.115,0.264 -0.043,0.023 -0.09,0.049 -0.147,0.053 -0.053,0.009 -0.142,0.015 -0.262,0.015 l -0.656,0 0,-0.666 z m 0,-0.177 0,-0.668 c 0,-0.034 0.008,-0.057 0.024,-0.078 0.013,-0.016 0.039,-0.032 0.078,-0.043 l 0,-0.055 -0.446,0 0,0.055 c 0.04,0.011 0.069,0.027 0.084,0.043 0.014,0.021 0.022,0.044 0.022,0.078 l 0,1.529 c 0,0.031 -0.008,0.059 -0.022,0.074 -0.017,0.018 -0.044,0.029 -0.084,0.041 l 0,0.045 1.034,0 c 0.134,0 0.238,-0.003 0.31,-0.014 0.069,-0.015 0.133,-0.037 0.192,-0.07 0.068,-0.043 0.119,-0.1 0.158,-0.176 0.039,-0.076 0.058,-0.16 0.058,-0.254 0,-0.089 -0.019,-0.173 -0.056,-0.246 -0.039,-0.074 -0.092,-0.132 -0.162,-0.174 -0.057,-0.035 -0.121,-0.056 -0.194,-0.07 -0.068,-0.013 -0.172,-0.017 -0.306,-0.017 l -0.69,0 z"
       style="fill:#231f20;fill-opacity:1;fill-rule:nonzero;stroke:none"
       id="path1474"
       inkscape:connector-curvature="0" /><path
       d="m 333.08472,295.66919 0,-0.696 1.15,0 c 0.049,0 0.081,0.004 0.102,0.024 0.018,0.01 0.033,0.041 0.043,0.082 l 0.047,0 0,-0.391 -0.047,0 c -0.01,0.039 -0.025,0.067 -0.043,0.088 -0.021,0.008 -0.053,0.016 -0.102,0.016 l -1.498,0 0,0.049 c 0.045,0.006 0.075,0.025 0.086,0.041 0.016,0.021 0.024,0.054 0.024,0.095 l 0,1.495 c 0,0.052 -0.008,0.084 -0.024,0.099 -0.013,0.018 -0.043,0.033 -0.086,0.047 l 0,0.039 1.489,0 c 0.047,0 0.08,0.01 0.097,0.025 0.02,0.014 0.035,0.04 0.047,0.086 l 0.043,0 0,-0.396 -0.043,0 c -0.012,0.045 -0.027,0.072 -0.047,0.09 -0.017,0.01 -0.05,0.017 -0.097,0.017 l -1.141,0 0,-0.631 0.727,0 c 0.045,0 0.076,0.01 0.095,0.022 0.022,0.016 0.037,0.043 0.047,0.082 l 0.047,0 0,-0.391 -0.047,0 c -0.01,0.045 -0.025,0.073 -0.047,0.086 -0.019,0.014 -0.05,0.022 -0.095,0.022 l -0.727,0 z"
       style="fill:#231f20;fill-opacity:1;fill-rule:nonzero;stroke:none"
       id="path1476"
       inkscape:connector-curvature="0" /><path
       d="m 335.11772,295.82119 0.707,0 c 0.116,0 0.201,0.006 0.26,0.008 0.055,0.012 0.106,0.029 0.143,0.049 0.089,0.049 0.132,0.137 0.132,0.256 0,0.115 -0.041,0.205 -0.123,0.263 -0.074,0.057 -0.203,0.082 -0.384,0.082 l -0.735,0 0,-0.658 z m 0,-0.181 0,-0.663 c 0,-0.041 0.004,-0.074 0.018,-0.095 0.015,-0.016 0.047,-0.035 0.086,-0.041 l 0,-0.049 -0.447,0 0,0.049 c 0.042,0.006 0.07,0.025 0.083,0.041 0.012,0.021 0.022,0.054 0.022,0.095 l 0,1.495 c 0,0.052 -0.01,0.084 -0.023,0.099 -0.016,0.018 -0.043,0.033 -0.082,0.047 l 0,0.039 1.103,0 c 0.127,0 0.229,-0.006 0.309,-0.025 0.08,-0.014 0.152,-0.045 0.207,-0.086 0.131,-0.092 0.195,-0.229 0.195,-0.405 0,-0.142 -0.049,-0.251 -0.139,-0.335 -0.088,-0.084 -0.22,-0.137 -0.394,-0.153 l 0.469,-0.742 c 0.015,-0.027 0.033,-0.039 0.046,-0.053 0.018,-0.011 0.047,-0.013 0.084,-0.017 l 0,-0.049 -0.461,0 0,0.049 c 0.047,0.006 0.067,0.019 0.067,0.039 0,0.013 -0.014,0.037 -0.037,0.084 l -0.43,0.676 -0.676,0 z"
       style="fill:#231f20;fill-opacity:1;fill-rule:nonzero;stroke:none"
       id="path1478"
       inkscape:connector-curvature="0" /><path
       d="m 337.06172,294.97719 0,1.495 c 0,0.052 -0.006,0.084 -0.022,0.099 -0.014,0.018 -0.043,0.033 -0.086,0.047 l 0,0.039 0.453,0 0,-0.039 c -0.045,-0.014 -0.072,-0.029 -0.086,-0.047 -0.013,-0.015 -0.023,-0.047 -0.023,-0.099 l 0,-1.495 c 0,-0.041 0.01,-0.074 0.023,-0.095 0.014,-0.016 0.041,-0.035 0.086,-0.041 l 0,-0.049 -0.453,0 0,0.049 c 0.043,0.006 0.072,0.025 0.086,0.041 0.016,0.021 0.022,0.054 0.022,0.095"
       style="fill:#231f20;fill-opacity:1;fill-rule:nonzero;stroke:none"
       id="path1480"
       inkscape:connector-curvature="0" /><path
       d="m 338.88372,296.50719 c -0.272,0 -0.488,-0.08 -0.654,-0.248 -0.143,-0.149 -0.219,-0.325 -0.219,-0.532 0,-0.212 0.076,-0.386 0.219,-0.533 0.166,-0.164 0.384,-0.252 0.658,-0.252 0.273,0 0.494,0.088 0.658,0.252 0.145,0.147 0.215,0.317 0.215,0.522 0,0.218 -0.07,0.398 -0.215,0.543 -0.166,0.164 -0.387,0.244 -0.662,0.248 m 0,0.195 c 0.332,0 0.601,-0.084 0.803,-0.264 0.216,-0.179 0.326,-0.422 0.326,-0.722 0,-0.188 -0.053,-0.364 -0.16,-0.522 -0.202,-0.291 -0.522,-0.441 -0.965,-0.441 -0.33,0 -0.596,0.088 -0.799,0.258 -0.219,0.183 -0.328,0.423 -0.328,0.716 0,0.196 0.055,0.373 0.16,0.532 0.111,0.166 0.27,0.287 0.471,0.359 0.138,0.055 0.304,0.081 0.492,0.084"
       style="fill:#231f20;fill-opacity:1;fill-rule:nonzero;stroke:none"
       id="path1482"
       inkscape:connector-curvature="0" /><path
       d="m 340.70972,295.82119 0.709,0 c 0.113,0 0.201,0.006 0.258,0.008 0.056,0.012 0.103,0.029 0.146,0.049 0.084,0.049 0.131,0.137 0.131,0.256 0,0.115 -0.041,0.205 -0.125,0.263 -0.072,0.057 -0.201,0.082 -0.383,0.082 l -0.736,0 0,-0.658 z m 0,-0.181 0,-0.663 c 0,-0.041 0.008,-0.074 0.022,-0.095 0.013,-0.016 0.043,-0.035 0.085,-0.041 l 0,-0.049 -0.451,0 0,0.049 c 0.043,0.006 0.073,0.025 0.086,0.041 0.014,0.021 0.02,0.054 0.02,0.095 l 0,1.495 c 0,0.052 -0.006,0.084 -0.02,0.099 -0.013,0.018 -0.043,0.033 -0.086,0.047 l 0,0.039 1.108,0 c 0.125,0 0.228,-0.006 0.306,-0.025 0.08,-0.014 0.149,-0.045 0.205,-0.086 0.131,-0.092 0.196,-0.229 0.196,-0.405 0,-0.142 -0.045,-0.251 -0.133,-0.335 -0.094,-0.084 -0.223,-0.137 -0.397,-0.153 l 0.465,-0.742 c 0.018,-0.027 0.035,-0.039 0.049,-0.053 0.018,-0.011 0.047,-0.013 0.088,-0.017 l 0,-0.049 -0.463,0 0,0.049 c 0.045,0.006 0.065,0.019 0.065,0.039 0,0.013 -0.012,0.037 -0.039,0.084 l -0.43,0.676 -0.676,0 z"
       style="fill:#231f20;fill-opacity:1;fill-rule:nonzero;stroke:none"
       id="path1484"
       inkscape:connector-curvature="0" /><path
       d="m 343.74072,294.97319 0.584,0 c 0.223,0 0.385,0.034 0.489,0.094 0.109,0.065 0.195,0.164 0.252,0.309 0.041,0.103 0.062,0.224 0.062,0.351 0,0.225 -0.061,0.411 -0.174,0.547 -0.066,0.074 -0.144,0.127 -0.24,0.158 -0.096,0.032 -0.225,0.047 -0.389,0.047 l -0.584,0 0,-1.506 z m -0.238,0.004 0,1.495 c 0,0.05 -0.006,0.082 -0.02,0.099 -0.011,0.018 -0.042,0.033 -0.085,0.047 l 0,0.039 0.941,0 c 0.252,0 0.441,-0.029 0.564,-0.084 0.155,-0.076 0.274,-0.201 0.36,-0.369 0.076,-0.15 0.115,-0.311 0.115,-0.477 0,-0.199 -0.051,-0.377 -0.152,-0.543 -0.084,-0.144 -0.196,-0.242 -0.328,-0.304 -0.131,-0.061 -0.319,-0.088 -0.559,-0.088 l -0.941,0 0,0.049 c 0.043,0.006 0.074,0.025 0.085,0.041 0.014,0.021 0.02,0.054 0.02,0.095"
       style="fill:#231f20;fill-opacity:1;fill-rule:nonzero;stroke:none"
       id="path1486"
       inkscape:connector-curvature="0" /><path
       d="m 346.07272,295.66919 0,-0.696 1.155,0 c 0.047,0 0.08,0.004 0.099,0.024 0.02,0.01 0.035,0.041 0.045,0.082 l 0.043,0 0,-0.391 -0.043,0 c -0.01,0.039 -0.025,0.067 -0.043,0.088 -0.019,0.008 -0.053,0.016 -0.101,0.016 l -1.498,0 0,0.049 c 0.046,0.006 0.074,0.025 0.087,0.041 0.012,0.021 0.022,0.054 0.022,0.095 l 0,1.495 c 0,0.052 -0.01,0.084 -0.023,0.099 -0.014,0.018 -0.04,0.033 -0.086,0.047 l 0,0.039 1.488,0 c 0.047,0 0.08,0.01 0.096,0.025 0.023,0.014 0.035,0.04 0.046,0.086 l 0.045,0 0,-0.396 -0.045,0 c -0.011,0.045 -0.023,0.072 -0.046,0.09 -0.016,0.01 -0.051,0.017 -0.096,0.017 l -1.145,0 0,-0.631 0.729,0 c 0.045,0 0.078,0.01 0.099,0.022 0.02,0.016 0.034,0.043 0.043,0.082 l 0.047,0 0,-0.391 -0.047,0 c -0.009,0.045 -0.023,0.073 -0.044,0.086 -0.022,0.014 -0.053,0.022 -0.098,0.022 l -0.729,0 z"
       style="fill:#231f20;fill-opacity:1;fill-rule:nonzero;stroke:none"
       id="path1488"
       inkscape:connector-curvature="0" /><path
       d="m 348.77472,294.99319 0,1.878 c 0,0.045 -0.01,0.079 -0.024,0.095 -0.014,0.028 -0.039,0.036 -0.088,0.05 l 0,0.05 0.479,0 0,-0.05 c -0.043,-0.016 -0.071,-0.025 -0.082,-0.05 -0.02,-0.016 -0.026,-0.05 -0.026,-0.095 l 0,-1.878 c 0,-0.051 0.006,-0.082 0.024,-0.102 0.011,-0.017 0.039,-0.033 0.084,-0.044 l 0,-0.055 -0.479,0 0,0.055 c 0.051,0.011 0.076,0.027 0.09,0.044 0.014,0.02 0.022,0.051 0.022,0.102"
       style="fill:#231f20;fill-opacity:1;fill-rule:nonzero;stroke:none"
       id="path1490"
       inkscape:connector-curvature="0" /><path
       d="m 349.89772,296.36819 0,-1.391 c 0,-0.041 0.009,-0.074 0.017,-0.095 0.018,-0.016 0.047,-0.035 0.09,-0.041 l 0,-0.049 -0.41,0 0,0.049 c 0.041,0.006 0.07,0.025 0.082,0.041 0.014,0.021 0.021,0.054 0.021,0.095 l 0,1.495 c 0,0.052 -0.007,0.084 -0.021,0.099 -0.016,0.018 -0.041,0.033 -0.082,0.047 l 0,0.039 0.601,0 0,-0.039 c -0.054,-0.023 -0.082,-0.051 -0.082,-0.09 0,-0.033 0.018,-0.068 0.065,-0.121 l 1.099,-1.234 0,1.299 c 0,0.052 -0.009,0.084 -0.025,0.099 -0.014,0.018 -0.041,0.033 -0.082,0.047 l 0,0.039 0.41,0 0,-0.039 c -0.045,-0.014 -0.072,-0.029 -0.084,-0.047 -0.015,-0.015 -0.025,-0.047 -0.025,-0.099 l 0,-1.495 c 0,-0.041 0.01,-0.074 0.025,-0.095 0.01,-0.016 0.039,-0.035 0.084,-0.041 l 0,-0.049 -0.486,0 0,0.049 c 0.056,0.009 0.086,0.037 0.086,0.066 0,0.027 -0.026,0.066 -0.082,0.127 l -1.201,1.334 z"
       style="fill:#231f20;fill-opacity:1;fill-rule:nonzero;stroke:none"
       id="path1492"
       inkscape:connector-curvature="0" /><path
       d="m 352.87772,295.05919 0.6,1.37 c 0.015,0.035 0.025,0.066 0.025,0.095 0,0.051 -0.033,0.082 -0.098,0.094 l 0,0.039 0.463,0 0,-0.039 c -0.051,-0.016 -0.086,-0.031 -0.107,-0.062 -0.02,-0.028 -0.051,-0.09 -0.096,-0.19 l -0.568,-1.297 c -0.03,-0.062 -0.041,-0.105 -0.041,-0.135 0,-0.054 0.033,-0.087 0.094,-0.093 l 0,-0.049 -0.577,0 0,0.049 c 0.061,0.007 0.094,0.039 0.094,0.093 0,0.03 -0.012,0.073 -0.039,0.135 l -0.588,1.297 c -0.045,0.1 -0.076,0.164 -0.101,0.191 -0.022,0.03 -0.057,0.045 -0.1,0.061 l 0,0.039 0.512,0 0,-0.039 c -0.067,-0.014 -0.098,-0.043 -0.098,-0.094 0,-0.027 0.008,-0.06 0.025,-0.095 l 0.6,-1.37 z"
       style="fill:#231f20;fill-opacity:1;fill-rule:nonzero;stroke:none"
       id="path1494"
       inkscape:connector-curvature="0" /><path
       d="m 354.46772,295.66919 0,-0.696 1.158,0 c 0.045,0 0.076,0.004 0.094,0.024 0.021,0.01 0.035,0.041 0.047,0.082 l 0.047,0 0,-0.391 -0.047,0 c -0.012,0.039 -0.026,0.067 -0.047,0.088 -0.018,0.008 -0.047,0.016 -0.094,0.016 l -1.5,0 0,0.049 c 0.041,0.006 0.068,0.025 0.086,0.041 0.01,0.021 0.02,0.054 0.02,0.095 l 0,1.495 c 0,0.052 -0.01,0.084 -0.022,0.099 -0.018,0.018 -0.045,0.033 -0.084,0.047 l 0,0.039 1.484,0 c 0.047,0 0.079,0.01 0.102,0.025 0.016,0.014 0.033,0.04 0.041,0.086 l 0.045,0 0,-0.396 -0.045,0 c -0.008,0.045 -0.025,0.072 -0.041,0.09 -0.023,0.01 -0.055,0.017 -0.102,0.017 l -1.142,0 0,-0.631 0.728,0 c 0.047,0 0.082,0.01 0.1,0.022 0.018,0.016 0.031,0.043 0.047,0.082 l 0.039,0 0,-0.391 -0.039,0 c -0.016,0.045 -0.029,0.073 -0.051,0.086 -0.016,0.014 -0.049,0.022 -0.096,0.022 l -0.728,0 z"
       style="fill:#231f20;fill-opacity:1;fill-rule:nonzero;stroke:none"
       id="path1496"
       inkscape:connector-curvature="0" /><path
       d="m 357.93272,296.56119 -0.186,-0.359 -0.035,0.018 c 0.004,0.033 0.004,0.056 0.004,0.068 0,0.025 -0.033,0.057 -0.108,0.098 -0.15,0.08 -0.337,0.121 -0.558,0.121 -0.178,0 -0.326,-0.034 -0.451,-0.098 -0.123,-0.068 -0.186,-0.162 -0.186,-0.279 0,-0.049 0.018,-0.102 0.049,-0.147 0.029,-0.039 0.07,-0.07 0.127,-0.088 0.051,-0.017 0.107,-0.029 0.166,-0.037 0.061,0 0.191,-0.011 0.395,-0.017 0.164,-0.006 0.292,-0.014 0.38,-0.032 0.086,-0.013 0.159,-0.043 0.221,-0.078 0.063,-0.031 0.117,-0.09 0.156,-0.158 0.034,-0.066 0.057,-0.142 0.057,-0.225 0,-0.175 -0.07,-0.31 -0.213,-0.412 -0.168,-0.121 -0.393,-0.183 -0.674,-0.183 -0.138,0 -0.283,0.025 -0.433,0.064 -0.153,0.041 -0.291,0.098 -0.424,0.174 -0.016,0.012 -0.031,0.016 -0.041,0.016 -0.018,0 -0.041,-0.02 -0.072,-0.063 l -0.041,0.029 0.214,0.354 0.039,-0.02 c -0.003,-0.017 -0.005,-0.025 -0.005,-0.029 -0.006,-0.019 -0.01,-0.031 -0.01,-0.047 0,-0.031 0.056,-0.074 0.17,-0.133 0.191,-0.101 0.388,-0.156 0.593,-0.156 0.19,0 0.342,0.033 0.467,0.1 0.061,0.029 0.112,0.076 0.147,0.125 0.035,0.056 0.052,0.111 0.052,0.17 0,0.049 -0.015,0.099 -0.044,0.142 -0.032,0.043 -0.069,0.069 -0.122,0.09 -0.041,0.018 -0.095,0.026 -0.15,0.035 -0.055,0.002 -0.162,0.012 -0.318,0.018 -0.182,0.008 -0.315,0.018 -0.391,0.025 -0.08,0.012 -0.152,0.028 -0.223,0.053 -0.089,0.031 -0.162,0.088 -0.212,0.158 -0.057,0.076 -0.084,0.162 -0.084,0.264 0,0.18 0.08,0.318 0.242,0.424 0.164,0.103 0.377,0.156 0.631,0.156 0.236,0 0.468,-0.053 0.703,-0.156 0.037,-0.018 0.052,-0.022 0.062,-0.022 0.016,0 0.041,0.018 0.065,0.063 l 0.041,-0.026 z"
       style="fill:#231f20;fill-opacity:1;fill-rule:nonzero;stroke:none"
       id="path1498"
       inkscape:connector-curvature="0" /><path
       d="m 359.19372,296.46619 0,-1.489 c 0,-0.041 0.008,-0.074 0.024,-0.095 0.014,-0.016 0.041,-0.035 0.084,-0.041 l 0,-0.049 -0.451,0 0,0.049 c 0.043,0.006 0.072,0.025 0.088,0.041 0.009,0.021 0.021,0.054 0.021,0.095 l 0,1.489 -0.615,0 c -0.041,0 -0.076,-0.004 -0.092,-0.02 -0.023,-0.014 -0.035,-0.043 -0.047,-0.08 l -0.047,0 0,0.388 0.047,0 c 0.012,-0.04 0.024,-0.07 0.047,-0.082 0.016,-0.018 0.051,-0.023 0.092,-0.023 l 1.461,0 c 0.045,0 0.08,0.005 0.097,0.023 0.022,0.012 0.036,0.042 0.045,0.082 l 0.043,0 0,-0.388 -0.043,0 c -0.009,0.037 -0.025,0.066 -0.045,0.08 -0.019,0.016 -0.052,0.02 -0.097,0.02 l -0.612,0 z"
       style="fill:#231f20;fill-opacity:1;fill-rule:nonzero;stroke:none"
       id="path1500"
       inkscape:connector-curvature="0" /><path
       d="m 360.32672,294.97719 0,1.495 c 0,0.052 -0.01,0.084 -0.021,0.099 -0.018,0.018 -0.045,0.033 -0.086,0.047 l 0,0.039 0.453,0 0,-0.039 c -0.045,-0.014 -0.076,-0.029 -0.084,-0.047 -0.018,-0.015 -0.025,-0.047 -0.025,-0.099 l 0,-1.495 c 0,-0.041 0.007,-0.074 0.025,-0.095 0.008,-0.016 0.039,-0.035 0.084,-0.041 l 0,-0.049 -0.453,0 0,0.049 c 0.041,0.006 0.068,0.025 0.086,0.041 0.011,0.021 0.021,0.054 0.021,0.095"
       style="fill:#231f20;fill-opacity:1;fill-rule:nonzero;stroke:none"
       id="path1502"
       inkscape:connector-curvature="0" /><path
       d="m 363.07872,296.48719 -0.23,-0.369 -0.039,0.023 c 0.011,0.04 0.021,0.067 0.021,0.077 0,0.029 -0.056,0.078 -0.158,0.138 -0.176,0.098 -0.357,0.141 -0.547,0.141 -0.242,0 -0.434,-0.065 -0.594,-0.197 -0.17,-0.153 -0.254,-0.348 -0.254,-0.584 0,-0.225 0.075,-0.409 0.233,-0.553 0.16,-0.147 0.369,-0.221 0.623,-0.221 0.127,0 0.254,0.024 0.371,0.065 0.115,0.033 0.215,0.09 0.293,0.156 l 0,0.346 -0.42,0 c -0.049,0 -0.082,-0.006 -0.098,-0.024 -0.019,-0.013 -0.035,-0.039 -0.047,-0.082 l -0.042,0 0,0.393 0.042,0 c 0.012,-0.043 0.028,-0.071 0.047,-0.084 0.016,-0.016 0.049,-0.024 0.098,-0.024 l 0.736,0 0,-0.045 c -0.045,-0.005 -0.068,-0.021 -0.086,-0.041 -0.011,-0.023 -0.021,-0.056 -0.021,-0.099 l 0,-0.194 c 0,-0.05 0.01,-0.082 0.021,-0.097 0.018,-0.022 0.041,-0.039 0.086,-0.049 l 0,-0.035 c -0.287,-0.248 -0.627,-0.375 -1.011,-0.375 -0.297,0 -0.543,0.084 -0.739,0.244 -0.105,0.09 -0.181,0.195 -0.238,0.316 -0.064,0.135 -0.098,0.266 -0.098,0.409 0,0.209 0.065,0.398 0.192,0.564 0.109,0.148 0.258,0.26 0.445,0.332 0.143,0.049 0.291,0.074 0.451,0.074 0.141,0 0.266,-0.01 0.379,-0.045 0.113,-0.035 0.25,-0.093 0.41,-0.183 0.024,-0.012 0.043,-0.02 0.051,-0.02 0.014,0 0.041,0.022 0.08,0.067 l 0.043,-0.024 z"
       style="fill:#231f20;fill-opacity:1;fill-rule:nonzero;stroke:none"
       id="path1504"
       inkscape:connector-curvature="0" /><path
       d="m 364.65872,295.50319 -0.404,0.912 -0.41,-0.912 0.814,0 z m 0.082,-0.182 -0.974,0 -0.143,-0.314 c -0.016,-0.039 -0.029,-0.069 -0.029,-0.092 0,-0.035 0.031,-0.063 0.088,-0.074 l 0,-0.049 -0.459,0 0,0.049 c 0.047,0.006 0.08,0.021 0.107,0.049 0.022,0.025 0.051,0.082 0.086,0.154 l 0.615,1.349 c 0.035,0.071 0.057,0.125 0.057,0.153 0,0.041 -0.027,0.062 -0.086,0.072 l 0,0.039 0.541,0 0,-0.039 c -0.053,-0.016 -0.08,-0.037 -0.08,-0.072 0,-0.022 0.019,-0.082 0.066,-0.18 l 0.594,-1.297 c 0.037,-0.08 0.072,-0.138 0.102,-0.17 0.029,-0.033 0.066,-0.052 0.107,-0.058 l 0,-0.049 -0.486,0 0,0.049 c 0.053,0.006 0.078,0.031 0.078,0.056 0,0.014 -0.012,0.045 -0.043,0.11 l -0.141,0.314 z"
       style="fill:#231f20;fill-opacity:1;fill-rule:nonzero;stroke:none"
       id="path1506"
       inkscape:connector-curvature="0" /><path
       d="m 367.51872,296.52419 -0.205,-0.361 -0.039,0.023 c 0.007,0.03 0.007,0.051 0.007,0.071 0,0.021 -0.021,0.047 -0.064,0.08 -0.182,0.113 -0.387,0.17 -0.631,0.17 -0.236,0 -0.432,-0.067 -0.592,-0.198 -0.176,-0.142 -0.262,-0.334 -0.262,-0.568 0,-0.258 0.096,-0.461 0.29,-0.611 0.156,-0.123 0.343,-0.188 0.556,-0.188 0.238,0 0.451,0.073 0.633,0.217 0.07,0.057 0.102,0.098 0.102,0.121 0,0.018 -0.006,0.047 -0.032,0.086 l 0.041,0.022 0.264,-0.329 -0.037,-0.031 c -0.041,0.033 -0.068,0.049 -0.08,0.049 -0.01,0 -0.031,-0.008 -0.041,-0.018 -0.143,-0.111 -0.274,-0.185 -0.412,-0.236 -0.139,-0.045 -0.295,-0.07 -0.461,-0.07 -0.299,0 -0.539,0.084 -0.733,0.242 -0.099,0.074 -0.179,0.17 -0.232,0.283 -0.078,0.139 -0.109,0.291 -0.109,0.453 0,0.305 0.117,0.549 0.355,0.735 0.199,0.156 0.447,0.236 0.75,0.236 0.266,0 0.521,-0.066 0.762,-0.201 0.027,-0.008 0.041,-0.01 0.054,-0.01 0.022,0 0.045,0.014 0.073,0.055 l 0.043,-0.022 z"
       style="fill:#231f20;fill-opacity:1;fill-rule:nonzero;stroke:none"
       id="path1508"
       inkscape:connector-curvature="0" /><path
       d="m 368.03572,294.97719 0,1.495 c 0,0.052 -0.006,0.084 -0.025,0.099 -0.01,0.018 -0.039,0.033 -0.082,0.047 l 0,0.039 0.451,0 0,-0.039 c -0.043,-0.014 -0.07,-0.029 -0.09,-0.047 -0.008,-0.015 -0.017,-0.047 -0.017,-0.099 l 0,-1.495 c 0,-0.041 0.009,-0.074 0.017,-0.095 0.02,-0.016 0.047,-0.035 0.09,-0.041 l 0,-0.049 -0.451,0 0,0.049 c 0.043,0.006 0.072,0.025 0.082,0.041 0.019,0.021 0.025,0.054 0.025,0.095"
       style="fill:#231f20;fill-opacity:1;fill-rule:nonzero;stroke:none"
       id="path1510"
       inkscape:connector-curvature="0" /><path
       d="m 369.85672,296.50719 c -0.27,0 -0.493,-0.08 -0.653,-0.248 -0.148,-0.149 -0.219,-0.325 -0.219,-0.532 0,-0.212 0.071,-0.386 0.219,-0.533 0.16,-0.164 0.383,-0.252 0.656,-0.252 0.272,0 0.491,0.088 0.659,0.252 0.142,0.147 0.216,0.317 0.216,0.522 0,0.218 -0.074,0.398 -0.216,0.543 -0.168,0.164 -0.389,0.244 -0.662,0.248 m 0,0.195 c 0.332,0 0.601,-0.084 0.802,-0.264 0.221,-0.179 0.324,-0.422 0.324,-0.722 0,-0.188 -0.048,-0.364 -0.16,-0.522 -0.195,-0.291 -0.517,-0.441 -0.963,-0.441 -0.33,0 -0.595,0.088 -0.8,0.258 -0.215,0.183 -0.328,0.423 -0.328,0.716 0,0.196 0.058,0.373 0.16,0.532 0.115,0.166 0.271,0.287 0.472,0.359 0.139,0.055 0.307,0.081 0.493,0.084"
       style="fill:#231f20;fill-opacity:1;fill-rule:nonzero;stroke:none"
       id="path1512"
       inkscape:connector-curvature="0" /><path
       d="m 371.64172,296.36819 0,-1.391 c 0,-0.041 0.009,-0.074 0.023,-0.095 0.012,-0.016 0.041,-0.035 0.088,-0.041 l 0,-0.049 -0.412,0 0,0.049 c 0.043,0.006 0.07,0.025 0.082,0.041 0.016,0.021 0.023,0.054 0.023,0.095 l 0,1.495 c 0,0.052 -0.007,0.084 -0.023,0.099 -0.012,0.018 -0.039,0.033 -0.082,0.047 l 0,0.039 0.605,0 0,-0.039 c -0.056,-0.023 -0.088,-0.051 -0.088,-0.09 0,-0.033 0.024,-0.068 0.065,-0.121 l 1.103,-1.234 0,1.299 c 0,0.052 -0.009,0.084 -0.025,0.099 -0.012,0.018 -0.039,0.033 -0.086,0.047 l 0,0.039 0.412,0 0,-0.039 c -0.045,-0.014 -0.072,-0.029 -0.082,-0.047 -0.019,-0.015 -0.025,-0.047 -0.025,-0.099 l 0,-1.495 c 0,-0.041 0.006,-0.074 0.025,-0.095 0.008,-0.016 0.037,-0.035 0.082,-0.041 l 0,-0.049 -0.488,0 0,0.049 c 0.062,0.009 0.088,0.037 0.088,0.066 0,0.027 -0.026,0.066 -0.082,0.127 l -1.203,1.334 z"
       style="fill:#231f20;fill-opacity:1;fill-rule:nonzero;stroke:none"
       id="path1514"
       inkscape:connector-curvature="0" /><path
       d="m 374.06872,295.66919 0,-0.696 1.157,0 c 0.043,0 0.076,0.004 0.099,0.024 0.018,0.01 0.035,0.041 0.043,0.082 l 0.045,0 0,-0.391 -0.045,0 c -0.008,0.039 -0.023,0.067 -0.043,0.088 -0.021,0.008 -0.054,0.016 -0.097,0.016 l -1.502,0 0,0.049 c 0.045,0.006 0.074,0.025 0.09,0.041 0.011,0.021 0.019,0.054 0.019,0.095 l 0,1.495 c 0,0.052 -0.012,0.084 -0.021,0.099 -0.016,0.018 -0.045,0.033 -0.088,0.047 l 0,0.039 1.488,0 c 0.047,0 0.082,0.01 0.1,0.025 0.019,0.014 0.031,0.04 0.046,0.086 l 0.041,0 0,-0.396 -0.041,0 c -0.015,0.045 -0.027,0.072 -0.046,0.09 -0.018,0.01 -0.053,0.017 -0.1,0.017 l -1.145,0 0,-0.631 0.729,0 c 0.049,0 0.082,0.01 0.1,0.022 0.023,0.016 0.033,0.043 0.044,0.082 l 0.043,0 0,-0.391 -0.043,0 c -0.011,0.045 -0.021,0.073 -0.046,0.086 -0.018,0.014 -0.051,0.022 -0.098,0.022 l -0.729,0 z"
       style="fill:#231f20;fill-opacity:1;fill-rule:nonzero;stroke:none"
       id="path1516"
       inkscape:connector-curvature="0" /><path
       d="m 377.53372,296.56119 -0.183,-0.359 -0.037,0.018 c 0.005,0.033 0.005,0.056 0.005,0.068 0,0.025 -0.035,0.057 -0.105,0.098 -0.154,0.08 -0.338,0.121 -0.559,0.121 -0.181,0 -0.328,-0.034 -0.453,-0.098 -0.121,-0.068 -0.181,-0.162 -0.181,-0.279 0,-0.049 0.011,-0.102 0.043,-0.147 0.031,-0.039 0.072,-0.07 0.125,-0.088 0.056,-0.017 0.111,-0.029 0.169,-0.037 0.063,0 0.194,-0.011 0.395,-0.017 0.166,-0.006 0.295,-0.014 0.379,-0.032 0.088,-0.013 0.156,-0.043 0.219,-0.078 0.064,-0.031 0.119,-0.09 0.158,-0.158 0.035,-0.066 0.055,-0.142 0.055,-0.225 0,-0.175 -0.069,-0.31 -0.213,-0.412 -0.164,-0.121 -0.389,-0.183 -0.668,-0.183 -0.143,0 -0.282,0.025 -0.434,0.064 -0.156,0.041 -0.295,0.098 -0.426,0.174 -0.019,0.012 -0.031,0.016 -0.041,0.016 -0.013,0 -0.041,-0.02 -0.07,-0.063 l -0.039,0.029 0.209,0.354 0.041,-0.02 c -0.004,-0.017 -0.008,-0.025 -0.008,-0.029 -0.008,-0.019 -0.008,-0.031 -0.008,-0.047 0,-0.031 0.057,-0.074 0.17,-0.133 0.192,-0.101 0.393,-0.156 0.596,-0.156 0.185,0 0.34,0.033 0.465,0.1 0.058,0.029 0.113,0.076 0.144,0.125 0.037,0.056 0.055,0.111 0.055,0.17 0,0.049 -0.018,0.099 -0.049,0.142 -0.029,0.043 -0.066,0.069 -0.115,0.09 -0.043,0.018 -0.098,0.026 -0.152,0.035 -0.053,0.002 -0.163,0.012 -0.317,0.018 -0.183,0.008 -0.314,0.018 -0.394,0.025 -0.078,0.012 -0.155,0.028 -0.219,0.053 -0.096,0.031 -0.16,0.088 -0.221,0.158 -0.054,0.076 -0.08,0.162 -0.08,0.264 0,0.18 0.08,0.318 0.242,0.424 0.166,0.103 0.375,0.156 0.629,0.156 0.239,0 0.471,-0.053 0.707,-0.156 0.037,-0.018 0.055,-0.022 0.061,-0.022 0.015,0 0.041,0.018 0.064,0.063 l 0.041,-0.026 z"
       style="fill:#231f20;fill-opacity:1;fill-rule:nonzero;stroke:none"
       id="path1518"
       inkscape:connector-curvature="0" /><path
       d="m 381.17072,296.87119 -0.246,-0.409 -0.043,0.029 c 0.006,0.033 0.012,0.057 0.012,0.07 0,0.051 -0.071,0.106 -0.211,0.178 -0.198,0.097 -0.408,0.138 -0.645,0.138 -0.306,0 -0.56,-0.083 -0.754,-0.255 -0.195,-0.176 -0.289,-0.404 -0.289,-0.682 0,-0.275 0.098,-0.506 0.305,-0.689 0.199,-0.182 0.439,-0.274 0.732,-0.274 0.282,0 0.532,0.088 0.748,0.25 0.098,0.077 0.145,0.125 0.145,0.157 0,0.019 -0.006,0.045 -0.029,0.08 l 0.043,0.031 0.296,-0.361 -0.043,-0.034 c -0.031,0.032 -0.054,0.043 -0.078,0.043 -0.007,0 -0.033,-0.011 -0.062,-0.037 -0.102,-0.072 -0.188,-0.133 -0.254,-0.17 -0.068,-0.037 -0.141,-0.07 -0.223,-0.095 -0.162,-0.059 -0.347,-0.088 -0.543,-0.088 -0.382,0 -0.693,0.105 -0.937,0.316 -0.25,0.227 -0.377,0.51 -0.377,0.86 0,0.275 0.082,0.505 0.238,0.711 0.246,0.311 0.611,0.468 1.108,0.468 0.322,0 0.636,-0.083 0.945,-0.262 0.019,-0.008 0.035,-0.01 0.039,-0.01 0.016,0 0.043,0.017 0.08,0.064 l 0.043,-0.029 z"
       style="fill:#231f20;fill-opacity:1;fill-rule:nonzero;stroke:none"
       id="path1520"
       inkscape:connector-curvature="0" /><path
       d="m 381.71972,294.97719 0,1.495 c 0,0.052 -0.006,0.084 -0.018,0.099 -0.017,0.018 -0.045,0.033 -0.09,0.047 l 0,0.039 0.452,0 0,-0.039 c -0.038,-0.014 -0.071,-0.029 -0.084,-0.047 -0.016,-0.015 -0.018,-0.047 -0.018,-0.099 l 0,-1.495 c 0,-0.041 0.002,-0.074 0.018,-0.095 0.013,-0.016 0.046,-0.035 0.084,-0.041 l 0,-0.049 -0.452,0 0,0.049 c 0.045,0.006 0.073,0.025 0.09,0.041 0.012,0.021 0.018,0.054 0.018,0.095"
       style="fill:#231f20;fill-opacity:1;fill-rule:nonzero;stroke:none"
       id="path1522"
       inkscape:connector-curvature="0" /><path
       d="m 382.81372,295.66919 0,-0.696 1.152,0 c 0.045,0 0.078,0.004 0.098,0.024 0.019,0.01 0.035,0.041 0.044,0.082 l 0.047,0 0,-0.391 -0.047,0 c -0.009,0.039 -0.025,0.067 -0.042,0.088 -0.022,0.008 -0.055,0.016 -0.098,0.016 l -1.5,0 0,0.049 c 0.041,0.006 0.068,0.025 0.088,0.041 0.008,0.021 0.017,0.054 0.017,0.095 l 0,1.495 c 0,0.052 -0.009,0.084 -0.019,0.099 -0.02,0.018 -0.045,0.033 -0.086,0.047 l 0,0.039 1.484,0 c 0.051,0 0.08,0.01 0.1,0.025 0.021,0.014 0.033,0.04 0.045,0.086 l 0.043,0 0,-0.396 -0.043,0 c -0.012,0.045 -0.024,0.072 -0.045,0.09 -0.02,0.01 -0.049,0.017 -0.1,0.017 l -1.138,0 0,-0.631 0.724,0 c 0.051,0 0.082,0.01 0.096,0.022 0.023,0.016 0.035,0.043 0.051,0.082 l 0.043,0 0,-0.391 -0.043,0 c -0.016,0.045 -0.028,0.073 -0.053,0.086 -0.014,0.014 -0.045,0.022 -0.094,0.022 l -0.724,0 z"
       style="fill:#231f20;fill-opacity:1;fill-rule:nonzero;stroke:none"
       id="path1524"
       inkscape:connector-curvature="0" /><path
       d="m 384.80372,296.36819 0,-1.391 c 0,-0.041 0.008,-0.074 0.025,-0.095 0.01,-0.016 0.037,-0.035 0.082,-0.041 l 0,-0.049 -0.41,0 0,0.049 c 0.047,0.006 0.072,0.025 0.084,0.041 0.016,0.021 0.025,0.054 0.025,0.095 l 0,1.495 c 0,0.052 -0.009,0.084 -0.025,0.099 -0.014,0.018 -0.039,0.033 -0.084,0.047 l 0,0.039 0.607,0 0,-0.039 c -0.058,-0.023 -0.085,-0.051 -0.085,-0.09 0,-0.033 0.017,-0.068 0.064,-0.121 l 1.1,-1.234 0,1.299 c 0,0.052 -0.008,0.084 -0.028,0.099 -0.009,0.018 -0.037,0.033 -0.082,0.047 l 0,0.039 0.412,0 0,-0.039 c -0.047,-0.014 -0.074,-0.029 -0.082,-0.047 -0.019,-0.015 -0.027,-0.047 -0.027,-0.099 l 0,-1.495 c 0,-0.041 0.006,-0.074 0.027,-0.095 0.008,-0.016 0.035,-0.035 0.082,-0.041 l 0,-0.049 -0.486,0 0,0.049 c 0.059,0.009 0.086,0.037 0.086,0.066 0,0.027 -0.025,0.066 -0.084,0.127 l -1.201,1.334 z"
       style="fill:#231f20;fill-opacity:1;fill-rule:nonzero;stroke:none"
       id="path1526"
       inkscape:connector-curvature="0" /><path
       d="m 387.75072,296.46619 0,-1.489 c 0,-0.041 0.006,-0.074 0.018,-0.095 0.013,-0.016 0.045,-0.035 0.089,-0.041 l 0,-0.049 -0.451,0 0,0.049 c 0.043,0.006 0.071,0.025 0.082,0.041 0.016,0.021 0.026,0.054 0.026,0.095 l 0,1.489 -0.612,0 c -0.05,0 -0.082,-0.004 -0.099,-0.02 -0.018,-0.014 -0.033,-0.043 -0.045,-0.08 l -0.043,0 0,0.388 0.043,0 c 0.012,-0.04 0.027,-0.07 0.045,-0.082 0.017,-0.018 0.049,-0.023 0.099,-0.023 l 1.457,0 c 0.045,0 0.079,0.005 0.102,0.023 0.014,0.012 0.033,0.042 0.041,0.082 l 0.045,0 0,-0.388 -0.045,0 c -0.008,0.037 -0.027,0.066 -0.043,0.08 -0.023,0.016 -0.057,0.02 -0.1,0.02 l -0.609,0 z"
       style="fill:#231f20;fill-opacity:1;fill-rule:nonzero;stroke:none"
       id="path1528"
       inkscape:connector-curvature="0" /><path
       d="m 389.40472,297.34419 0,-0.038 c -0.039,-0.003 -0.066,-0.025 -0.089,-0.051 l -0.215,-0.289 c -0.006,-0.003 -0.006,-0.018 -0.006,-0.031 0,-0.013 0.008,-0.024 0.033,-0.024 l 0.004,0 0,-0.04 -0.287,0 0,0.04 c 0.029,0 0.041,0.004 0.053,0.015 0.009,0.008 0.017,0.02 0.035,0.044 l 0.127,0.276 c 0.002,0.003 0.004,0.012 0.004,0.02 0,0.018 -0.016,0.037 -0.047,0.04 l 0,0.038 0.388,0 z m -0.527,-2.367 0,1.495 c 0,0.052 -0.002,0.084 -0.018,0.099 -0.015,0.018 -0.046,0.033 -0.082,0.047 l 0,0.039 0.444,0 0,-0.039 c -0.035,-0.014 -0.067,-0.029 -0.082,-0.047 -0.012,-0.015 -0.02,-0.047 -0.02,-0.099 l 0,-1.495 c 0,-0.041 0.008,-0.074 0.02,-0.095 0.015,-0.016 0.047,-0.035 0.082,-0.041 l 0,-0.049 -0.444,0 0,0.049 c 0.036,0.006 0.067,0.025 0.082,0.041 0.016,0.021 0.018,0.054 0.018,0.095"
       style="fill:#231f20;fill-opacity:1;fill-rule:nonzero;stroke:none"
       id="path1530"
       inkscape:connector-curvature="0" /><path
       d="m 389.96972,295.66919 0,-0.692 c 0,-0.041 0.012,-0.074 0.021,-0.095 0.018,-0.016 0.043,-0.035 0.08,-0.041 l 0,-0.049 -0.441,0 0,0.049 c 0.035,0.006 0.064,0.025 0.084,0.041 0.012,0.021 0.018,0.054 0.018,0.095 l 0,1.495 c 0,0.052 -0.006,0.084 -0.018,0.099 -0.02,0.018 -0.049,0.033 -0.084,0.047 l 0,0.039 1.516,0 c 0.041,0 0.074,0.01 0.095,0.025 0.018,0.014 0.034,0.04 0.043,0.086 l 0.049,0 0,-0.396 -0.049,0 c -0.009,0.045 -0.025,0.072 -0.043,0.09 -0.021,0.01 -0.054,0.017 -0.097,0.017 l -1.174,0 0,-0.629 0.765,0 c 0.043,0 0.079,0.008 0.096,0.022 0.018,0.016 0.033,0.043 0.045,0.082 l 0.047,0 0,-0.391 -0.047,0 c -0.012,0.043 -0.027,0.073 -0.045,0.084 -0.017,0.018 -0.053,0.022 -0.096,0.022 l -0.765,0 z"
       style="fill:#231f20;fill-opacity:1;fill-rule:nonzero;stroke:none"
       id="path1532"
       inkscape:connector-curvature="0" /><path
       d="m 391.74672,294.97719 0,1.495 c 0,0.052 -0.01,0.084 -0.027,0.099 -0.01,0.018 -0.037,0.033 -0.084,0.047 l 0,0.039 0.455,0 0,-0.039 c -0.045,-0.014 -0.074,-0.029 -0.09,-0.047 -0.012,-0.015 -0.021,-0.047 -0.021,-0.099 l 0,-1.495 c 0,-0.041 0.009,-0.074 0.021,-0.095 0.016,-0.016 0.045,-0.035 0.09,-0.041 l 0,-0.049 -0.455,0 0,0.049 c 0.047,0.006 0.074,0.025 0.084,0.041 0.017,0.021 0.027,0.054 0.027,0.095"
       style="fill:#231f20;fill-opacity:1;fill-rule:nonzero;stroke:none"
       id="path1534"
       inkscape:connector-curvature="0" /><path
       d="m 394.48472,296.52419 -0.21,-0.361 -0.036,0.023 c 0.004,0.03 0.008,0.051 0.008,0.071 0,0.021 -0.023,0.047 -0.068,0.08 -0.176,0.113 -0.385,0.17 -0.629,0.17 -0.234,0 -0.432,-0.067 -0.588,-0.198 -0.18,-0.142 -0.27,-0.334 -0.27,-0.568 0,-0.258 0.096,-0.461 0.295,-0.611 0.155,-0.123 0.338,-0.188 0.559,-0.188 0.236,0 0.447,0.073 0.631,0.217 0.064,0.057 0.101,0.098 0.101,0.121 0,0.018 -0.005,0.047 -0.027,0.086 l 0.035,0.022 0.266,-0.329 -0.037,-0.031 c -0.041,0.033 -0.071,0.049 -0.084,0.049 -0.008,0 -0.024,-0.008 -0.037,-0.018 -0.141,-0.111 -0.28,-0.185 -0.412,-0.236 -0.139,-0.045 -0.293,-0.07 -0.463,-0.07 -0.297,0 -0.543,0.084 -0.731,0.242 -0.099,0.074 -0.176,0.17 -0.234,0.283 -0.076,0.139 -0.113,0.291 -0.113,0.453 0,0.305 0.123,0.549 0.359,0.735 0.203,0.156 0.453,0.236 0.75,0.236 0.267,0 0.523,-0.066 0.764,-0.201 0.025,-0.008 0.039,-0.01 0.054,-0.01 0.022,0 0.045,0.014 0.073,0.055 l 0.044,-0.022 z"
       style="fill:#231f20;fill-opacity:1;fill-rule:nonzero;stroke:none"
       id="path1536"
       inkscape:connector-curvature="0" /><path
       d="m 396.13972,295.50319 -0.405,0.912 -0.414,-0.912 0.819,0 z m 0.08,-0.182 -0.975,0 -0.144,-0.314 c -0.014,-0.039 -0.028,-0.069 -0.028,-0.092 0,-0.035 0.03,-0.063 0.086,-0.074 l 0,-0.049 -0.457,0 0,0.049 c 0.043,0.006 0.076,0.021 0.108,0.049 0.021,0.025 0.05,0.082 0.086,0.154 l 0.615,1.349 c 0.037,0.071 0.055,0.125 0.055,0.153 0,0.041 -0.032,0.062 -0.088,0.072 l 0,0.039 0.545,0 0,-0.039 c -0.055,-0.016 -0.082,-0.037 -0.082,-0.072 0,-0.022 0.023,-0.082 0.066,-0.18 l 0.592,-1.297 c 0.043,-0.08 0.074,-0.138 0.103,-0.17 0.031,-0.033 0.065,-0.052 0.112,-0.058 l 0,-0.049 -0.491,0 0,0.049 c 0.055,0.006 0.08,0.031 0.08,0.056 0,0.014 -0.017,0.045 -0.041,0.11 l -0.142,0.314 z"
       style="fill:#231f20;fill-opacity:1;fill-rule:nonzero;stroke:none"
       id="path1538"
       inkscape:connector-curvature="0" /><path
       d="m 398.77772,296.56119 -0.183,-0.359 -0.039,0.018 c 0.006,0.033 0.008,0.056 0.008,0.068 0,0.025 -0.036,0.057 -0.11,0.098 -0.152,0.08 -0.338,0.121 -0.558,0.121 -0.18,0 -0.33,-0.034 -0.452,-0.098 -0.125,-0.068 -0.185,-0.162 -0.185,-0.279 0,-0.049 0.014,-0.102 0.047,-0.147 0.031,-0.039 0.072,-0.07 0.125,-0.088 0.052,-0.017 0.107,-0.029 0.17,-0.037 0.058,0 0.191,-0.011 0.396,-0.017 0.162,-0.006 0.287,-0.014 0.381,-0.032 0.086,-0.013 0.156,-0.043 0.217,-0.078 0.064,-0.031 0.119,-0.09 0.158,-0.158 0.033,-0.066 0.055,-0.142 0.055,-0.225 0,-0.175 -0.073,-0.31 -0.213,-0.412 -0.168,-0.121 -0.393,-0.183 -0.672,-0.183 -0.141,0 -0.283,0.025 -0.432,0.064 -0.154,0.041 -0.297,0.098 -0.425,0.174 -0.014,0.012 -0.034,0.016 -0.041,0.016 -0.016,0 -0.038,-0.02 -0.071,-0.063 l -0.041,0.029 0.211,0.354 0.039,-0.02 c -0.004,-0.017 -0.006,-0.025 -0.006,-0.029 -0.006,-0.019 -0.009,-0.031 -0.009,-0.047 0,-0.031 0.062,-0.074 0.169,-0.133 0.192,-0.101 0.395,-0.156 0.594,-0.156 0.188,0 0.344,0.033 0.467,0.1 0.061,0.029 0.111,0.076 0.148,0.125 0.038,0.056 0.051,0.111 0.051,0.17 0,0.049 -0.013,0.099 -0.043,0.142 -0.031,0.043 -0.068,0.069 -0.123,0.09 -0.039,0.018 -0.095,0.026 -0.15,0.035 -0.055,0.002 -0.162,0.012 -0.319,0.018 -0.181,0.008 -0.312,0.018 -0.386,0.025 -0.084,0.012 -0.158,0.028 -0.225,0.053 -0.09,0.031 -0.158,0.088 -0.217,0.158 -0.054,0.076 -0.082,0.162 -0.082,0.264 0,0.18 0.082,0.318 0.243,0.424 0.166,0.103 0.376,0.156 0.63,0.156 0.237,0 0.473,-0.053 0.705,-0.156 0.036,-0.018 0.053,-0.022 0.063,-0.022 0.018,0 0.039,0.018 0.06,0.063 l 0.045,-0.026 z"
       style="fill:#231f20;fill-opacity:1;fill-rule:nonzero;stroke:none"
       id="path1540"
       inkscape:connector-curvature="0" /><path
       d="m 317.28172,301.84519 c 0.012,-0.008 0.264,0 1.133,0.444 0.908,0.469 0.785,-1.325 0.785,-1.325 0.961,-0.411 2.504,-0.282 2.629,-0.186 0.119,0.1 -0.506,0.447 -0.707,0.824 -0.176,0.333 -0.146,1.033 0,1.19 0.545,0.581 1.936,0.177 1.936,0.177 0.045,-0.131 -0.039,-0.966 -0.039,-0.966 -0.088,0.051 -1.037,0.101 -1.125,-0.084 0,0 0.457,-0.169 0.646,-0.59 0.276,-0.616 -0.199,-1.543 -0.199,-1.543 -1.854,-1.042 -3.764,0.095 -3.838,0.159 -0.096,0.09 -0.23,0.583 -0.23,0.583 -2.245,-0.921 -4.553,0.104 -4.553,0.104 0.023,-0.438 -0.188,-0.693 -0.188,-0.693 -2.355,-1.114 -3.902,-0.131 -3.902,-0.131 -0.891,1.417 0.355,2.221 0.355,2.221 -0.177,0.081 -1.138,0.039 -1.138,0.039 l 0,0.923 c 2.115,0.476 2.008,-0.351 2.029,-1.072 0.024,-0.719 -0.723,-1.135 -0.723,-1.135 1.635,-0.318 2.604,0.156 2.604,0.156 0,0 -0.012,0.197 0.014,1.026 0.021,0.826 1.744,-0.062 1.744,-0.062 0.373,0.256 0.392,1.873 0.392,1.873 -0.867,0.955 0.043,1.458 0.043,1.458 0.045,1.31 -1.09,1.375 -1.09,1.375 0.243,-1.22 -0.064,-1.375 -0.24,-1.68 -0.174,-0.307 -1.722,-1.026 -1.631,-1.218 0.082,-0.205 0.871,0.431 0.871,0.431 0.258,-0.258 0.237,-0.721 0.237,-0.721 -0.305,-0.567 -1.768,-0.65 -1.68,0.373 0.096,1.125 0.94,0.96 1.658,1.546 0.721,0.59 -0.193,1.269 -0.193,1.269 -0.174,-0.022 -0.459,-0.199 -0.459,-0.199 0.021,-0.215 0.305,-0.585 0.305,-0.585 -0.127,-0.15 -0.809,-0.436 -0.809,-0.436 -0.109,0.043 -0.283,0.372 -0.283,0.372 l -0.195,-0.22 c 0.441,-1.638 -1.069,-1.657 -1.069,-1.657 l 0.043,0.389 c -0.262,-0.131 -0.914,-0.069 -0.914,-0.069 -0.045,0.638 0.545,1.136 0.545,1.136 -0.064,0.028 -0.174,0.201 -0.174,0.201 0.653,0.585 1.289,0.22 1.289,0.22 l 0.127,0.254 c -0.373,0.699 0.262,0.375 0.262,0.375 0.045,0.589 0.459,0.759 0.459,0.759 -0.02,0.114 -0.264,0.219 -0.264,0.219 -1.023,-0.847 -1.566,0.481 -1.566,0.481 -0.219,-0.021 -0.549,0.152 -0.549,0.152 0.066,0.131 0.307,0.347 0.307,0.347 -0.088,0.054 -0.241,0.587 -0.241,0.587 0.112,0.067 0.655,0.091 0.655,0.091 0,0.131 0.174,0.375 0.174,0.375 0.132,-0.093 0.46,-0.531 0.46,-0.531 0.129,0.027 0.368,-0.085 0.368,-0.085 0,0.112 0.152,0.304 0.152,0.304 0.023,0.068 -0.344,0.263 -0.344,0.263 l 0.084,0.113 c 0.084,0 0.5,-0.133 0.5,-0.133 1.115,0.696 1.547,-0.066 1.547,-0.066 0.133,-0.987 0.395,-0.719 0.395,-0.719 0.045,0.09 -0.043,0.542 -0.043,0.542 l 0.304,0 c 0.043,-0.257 0.545,-0.81 0.545,-0.81 -0.023,1.053 0.61,1.36 0.61,1.36 -0.063,1.634 -1.416,2.113 -1.416,2.113 -0.09,-0.327 -0.223,-1.222 -0.112,-1.265 0.112,-0.044 0.465,0.5 0.465,0.5 0.408,-0.257 0.494,-0.781 0.494,-0.781 -1.416,-0.874 -1.871,0.482 -1.871,0.482 -0.092,-0.028 -0.894,-0.158 -0.894,-0.158 -0.133,0.158 0.15,0.913 0.15,0.913 -0.525,0.026 -0.826,-0.456 -0.826,-0.456 0.221,-1.174 -1.418,-1.416 -1.418,-1.416 0.064,0.089 -0.199,0.332 -0.199,0.332 -0.17,-0.071 -0.957,-0.133 -0.957,-0.133 -0.024,0.562 0.504,0.934 0.504,0.934 -0.069,0.065 -0.202,0.501 -0.202,0.501 1.139,0.568 1.856,0.138 1.856,0.138 0.701,0.673 2.051,0.911 2.051,0.911 0.017,0.156 0.109,0.324 0.109,0.324 0.064,0.302 -1.137,0.302 -1.137,0.302 0.045,0.092 -0.15,0.573 -0.15,0.573 -0.086,0 -0.262,-0.11 -0.262,-0.11 -0.433,-0.628 -0.504,-0.087 -0.504,-0.087 -0.107,0.022 -0.412,-0.221 -0.412,-0.221 -0.238,-0.587 -1.328,-0.587 -1.328,-0.587 0.107,0.13 0,0.305 0,0.305 -0.24,0.027 -0.809,0.483 -0.809,0.483 0.176,0.151 0.788,0.461 0.788,0.461 -0.176,0.152 -0.131,0.805 -0.131,0.805 0.105,-0.115 0.763,-0.246 0.763,-0.246 0.606,-0.018 0.786,-0.675 0.786,-0.675 0.216,-0.042 0.937,0.369 0.937,0.369 -0.156,0.655 -0.875,0.77 -0.875,0.77 -1.523,-0.705 -1.764,0.65 -1.764,0.65 -0.109,0.05 -0.463,0.201 -0.463,0.201 0.092,0.129 0.502,0.322 0.502,0.322 -0.107,0.066 -0.148,0.593 -0.148,0.593 0.148,0.038 0.738,-0.047 0.738,-0.047 -0.039,0.131 0.155,0.438 0.155,0.438 l 0.304,-0.655 c 0,0 0.918,0.264 0.783,-1.004 0,0 0.112,-0.132 0.375,-0.238 0,0 0.153,0.476 0.041,0.675 -0.111,0.195 -0.369,0.674 -0.433,0.697 0,0 0.392,-0.106 0.476,-0.176 0,0 0.26,0.263 0.26,0.374 0,0 0.613,-0.657 0.569,-1.027 -0.041,-0.37 -0.504,-0.675 -0.61,-0.717 l 0.153,-0.135 c 0,0 1.572,0.657 2.203,-0.628 0,0 0.088,0.546 0.043,0.677 0,0 -0.856,0.096 -0.368,1.157 0.213,0.475 -0.046,0.673 -0.046,0.673 0,0 0.695,-0.111 0.83,-0.637 0,0 0.367,0.309 0.279,0.637 0,0 0.658,-0.283 0.48,-1.246 -0.105,-0.584 -0.607,-0.675 -0.607,-0.675 0,0 -0.352,-1.109 0.238,-2.028 0,0 0.547,0.479 0.61,0.677 0,0 -0.432,0.652 -0.108,1.132 0.326,0.481 0.612,0.348 0.742,0.459 0,0 0.414,0.501 0.436,0.636 0,0 0.152,-0.439 0.086,-0.549 0,0 0.566,0.153 0.676,0.153 0,0 -0.045,-0.545 -0.11,-0.607 0,0 0.307,-0.284 0.543,-0.201 0,0 -0.299,-0.371 -0.478,-0.412 0,0 -0.26,-1.225 -1.528,-0.938 0,0 -0.474,-0.503 -0.523,-0.657 0,0 0.523,-0.697 0.523,-0.869 0,0 0.678,0.22 0.854,0.087 0,0 1.152,0.46 1.199,2.503 l 0.305,0.067 c 0,0 -0.131,0.638 0,1.027 0,0 -1.154,1.243 -0.395,1.632 0,0 0.198,-0.368 0.436,-0.474 0,0 0.394,0.106 0.48,0.369 0,0 0.481,-0.654 0.307,-1.216 0,0 -0.522,-0.749 -0.414,-1.135 0,0 0.502,0.606 1.418,0.453 0,0 -0.111,0.744 0.351,1.329 0,0 0.063,-0.393 0.299,-0.585 0.246,-0.197 0.199,-0.502 0.135,-0.591 l 0.283,0.108 c 0,0 -0.351,1.027 0.502,1.268 0,0 0.195,0.547 0.324,0.693 l 0.33,-0.369 c 0,0 0.37,0.349 0.545,0.349 0,0 0.194,-0.567 0.149,-0.673 0,0 0.396,-0.045 0.508,0.018 0,0 -0.416,-0.694 -0.508,-0.741 0,0 0.244,-1.173 -1.485,-0.873 l -0.537,-0.478 c 0,0 0.172,-0.263 0.172,-0.344 0,0 1,0.344 1.176,0.522 0,0 0,-0.61 -0.09,-0.79 0,0 0.615,-0.171 0.809,-0.104 0,0 -0.239,-0.724 -0.809,-0.813 0,0 0.201,-0.304 -0.238,-0.239 0,0 -0.393,-0.131 -0.483,-0.256 0,0 -0.255,0.368 -0.392,0.392 0,0 -0.584,-0.218 -0.803,-0.113 0,0 0.113,0.351 0.022,0.432 l -0.084,0.092 0.084,-0.092 c 0,0 -0.807,-0.033 -0.762,-0.387 0,0 0.109,-0.631 0.109,-0.72 0,0 0.608,-0.109 0.717,-0.194 l 0.027,-0.828 -0.679,0.22 c 0,0 -0.219,-1.139 -0.959,-1.006 -0.742,0.126 -0.897,0.478 -0.285,1.504 0,0 -1.241,-0.126 -1.223,-1.83 0,0 0.068,-0.152 0.312,-0.068 0,0 -0.046,-0.434 -0.113,-0.587 0,0 0.674,0.457 1.199,0.26 0,0 0.371,0.526 1.045,0.284 0,0 0.352,0 0.282,0.876 l 0.33,0.022 0.025,-0.486 c 0,0 0.543,0.266 0.611,0.392 0,0 -0.287,0.789 0.498,1.074 0,0 0.266,0.41 0.393,0.456 0,0 0.172,-0.589 0.152,-0.72 0,0 0.655,0.111 0.809,0.063 0,0 -0.09,-0.517 -0.197,-0.655 0,0 0.326,-0.146 0.437,-0.304 0,0 -1.182,-0.653 -1.748,-0.414 0,0 -0.74,-0.216 -0.873,-0.391 0,0 0.328,-0.197 0.85,0.13 l 0,-0.327 0.246,0 c 0,0 1.261,0.874 1.761,-0.26 0,0 0.327,-0.152 0.526,-0.063 0,0 -0.088,-0.394 -0.264,-0.435 0,0 0.264,-0.419 0.264,-0.637 0,0 -0.371,-0.106 -0.588,-0.021 0,0 0,-0.46 -0.047,-0.588 0,0 -0.435,0.325 -0.502,0.503 0,0 -1.18,-0.178 -1.219,1 l -0.283,0.089 c 0,0 -0.351,-0.264 -0.502,-0.305 0,0 0.391,-0.219 0.477,-0.326 0,0 -0.19,-0.503 -0.344,-0.521 0,0 -1.355,0.69 -1.725,0.218 0,0 0.676,-0.4 0.831,-0.57 0,0 1.416,0.324 1.152,-0.869 l 0.086,-0.135 c 0,0 0.701,-0.067 0.941,-1.31 0,0 -0.849,-0.221 -1.07,1.001 0,0 -0.086,-0.039 -0.152,-0.105 0,0 0.091,-0.219 0.044,-0.302 0,0 0.983,-0.966 -0.328,-2.011 0,0 -0.482,0.545 -0.482,0.789 0,0 -0.586,0.189 -0.869,-0.133 0,0 -0.065,1.087 1.265,1.201 l 0.022,0.237 c 0,0 -0.457,-0.283 -0.654,-0.323 0,0 -0.44,0 -0.807,0.52 0,0 1.309,0.436 1.18,0.587 -0.137,0.153 -1.547,-0.74 -2.575,-0.218 0,0 -0.111,-0.196 -0.263,-0.217 0,0 -0.457,-0.825 -0.151,-1.636 0,0 1.014,-0.707 0.248,-1.459 0,0 0.121,-1.011 0.295,-1.101 m -5.631,12.693 c 0.186,-0.651 0.832,-0.02 1.09,-0.225 1.215,-1.034 -0.375,-2.246 0.078,-3.548 0.104,-0.266 0.274,-0.485 0.539,-0.611 0.293,-0.095 0.694,-0.008 0.938,0.154 0.043,0.147 -0.113,0.272 -0.219,0.42 -0.099,-0.086 -0.205,-0.224 -0.283,-0.301 -0.103,-0.211 -0.371,-0.17 -0.414,0.04 -0.164,1.286 0.896,2.9 -0.279,3.99 -0.422,0.321 -1.018,0.314 -1.45,0.081 m 7.274,0.085 c -2.145,-0.948 0.225,-2.874 -0.668,-4.47 0.199,-0.038 0.437,0.065 0.547,0.243 0.433,1.011 0.049,2.124 -0.186,3.094 -0.086,0.339 -0.052,0.546 0.207,0.796 0.264,0.228 0.627,0.032 0.752,-0.138 0.063,0.046 0.287,0.242 0.287,0.329 -0.238,0.179 -0.611,0.211 -0.939,0.146 m -0.057,-0.513 c -0.123,-0.2 -0.123,-0.467 -0.004,-0.676 0.19,0.148 0.473,0.427 0.592,0.596 -0.101,0.182 -0.402,0.33 -0.588,0.08 m -6.582,0.024 c 0.104,-0.224 0.44,-0.251 0.69,-0.313 l -0.092,0.16 c -0.172,0.245 -0.336,0.305 -0.598,0.153 m 8.016,-0.056 c -0.147,-0.121 -0.354,-0.366 -0.361,-0.467 0.007,-0.166 0.136,-0.669 0.054,-0.979 0.147,-0.061 0.336,0.03 0.461,0.065 0.151,0.448 0.207,1.066 -0.154,1.381 m -0.51,-0.6 -0.127,-0.19 c 0.08,-0.023 0.102,-0.031 0.18,0.003 l -0.053,0.187 z m -1.816,-0.874 -0.039,0.274 -0.086,-0.274 0.125,0 z m 1.306,-0.983 -0.045,-0.23 c -0.021,-0.4 0.383,-0.344 0.528,-0.43 l 0,0.43 c -0.127,0.2 -0.295,0.171 -0.483,0.23 m -1.478,-1.074 c 0.047,-0.09 0.047,-0.306 0.219,-0.262 0.257,0.214 0.257,0.6 0.218,0.907 -0.218,-0.128 -0.414,-0.409 -0.437,-0.645 m -5.412,-1.176 c -0.264,-0.124 -0.719,-0.284 -0.719,-0.615 0.146,-0.249 0.35,0.018 0.492,0.108 0.33,0.306 0.701,0.038 1.051,-0.048 0.045,0.146 -0.082,0.291 -0.162,0.415 -0.168,0.182 -0.416,0.14 -0.662,0.14 m 7.789,-0.223 c -0.621,-0.284 -1.074,0.45 -1.61,0.124 0.495,-0.226 0.967,-0.683 1.584,-0.456 0.147,0.086 0.373,0.186 0.354,0.415 l -0.108,0 -0.22,-0.083 z m -5.11,0 c -0.105,-0.061 -0.146,-0.163 -0.125,-0.284 0.045,-0.09 0.104,-0.275 0.186,-0.214 0.039,0.188 0.039,0.377 -0.061,0.498 m 2.489,-0.186 c 0.435,-0.06 0.699,-0.455 0.783,-0.842 0.103,0.062 0.25,0.037 0.332,0.158 0.041,0.25 -0.065,0.434 -0.209,0.599 -0.225,0.182 -0.678,0.31 -0.906,0.085 m -0.35,-0.271 c -0.123,-0.102 -0.348,-0.163 -0.285,-0.366 0.244,0.06 0.512,0.169 0.656,0.366 -0.103,0.052 -0.262,0.021 -0.371,0 m -5.187,-0.163 c -0.082,-0.08 -0.045,-0.25 0,-0.326 -0.186,-0.373 0.125,-0.662 0.369,-0.842 0.371,-0.087 0.742,-0.087 1.009,0.165 -0.062,0.159 -0.14,0.344 -0.308,0.449 -0.33,-0.415 -0.701,0.101 -0.99,0.228 0.045,0.016 0.062,0.107 0.127,0.059 0.097,0.048 0.31,0.109 0.285,0.267 -0.164,0.163 -0.328,0.163 -0.492,0 m 7.123,0.061 c -0.104,-0.032 -0.286,-0.019 -0.245,-0.186 0.352,-0.125 0.739,-0.201 1.071,-0.368 0.144,-0.061 0.429,-0.186 0.429,0.105 -0.367,0.263 -0.798,0.417 -1.255,0.449 m -4.303,-0.061 c -0.067,-0.219 -0.02,-0.493 0.043,-0.699 0.392,-0.837 1.277,-0.989 1.976,-1.317 0.041,0.043 0.041,0.105 0.063,0.168 -0.246,1.028 -1.486,1.211 -2.082,1.848 m -2.287,-0.388 c 0.082,-0.065 0.146,-0.166 0.25,-0.125 0.041,0.06 0.123,0.08 0.101,0.142 -0.041,0.213 -0.306,0.183 -0.351,-0.017 m 4.513,-0.903 c -0.084,-0.172 0.123,-0.182 0.225,-0.232 0.434,-0.127 1.033,-0.102 1.361,0.173 -0.433,0.283 -1.152,0.318 -1.586,0.059 m 2.596,-0.087 c -0.826,-0.185 -1.67,-0.68 -2.535,-0.372 -0.061,-0.144 0.021,-0.287 0.127,-0.37 0.906,-0.37 1.785,0.147 2.654,0.336 0.102,-0.029 0.162,-0.127 0.162,-0.232 -0.224,-0.415 -0.718,-0.516 -1.127,-0.657 -0.023,-0.088 0.057,-0.108 0.096,-0.171 0.332,-0.243 0.641,0.144 0.93,0.312 0.265,0.247 0.537,0.516 0.453,0.873 -0.145,0.281 -0.477,0.259 -0.76,0.281 m -7.642,-0.247 c -0.204,-0.223 -0.331,-0.534 -0.248,-0.865 0.083,-0.121 0.107,-0.354 0.265,-0.371 0.723,0.128 0.026,0.679 0.125,1.077 0.022,0.134 0.145,0.311 0.311,0.343 -0.186,-0.022 -0.348,-0.06 -0.453,-0.184 m 1.275,-0.223 c -0.082,-0.168 0.143,-0.373 0.209,-0.56 0.268,-1.029 -1.115,-1.198 -1.649,-1.733 -0.207,-0.222 -0.33,-0.49 -0.289,-0.797 0.082,-0.211 0.313,-0.397 0.534,-0.418 0.289,0.046 0.599,0.108 0.804,0.356 0.063,0.125 0,0.31 -0.123,0.346 -0.244,-0.187 -0.474,-0.394 -0.806,-0.346 -0.096,0.013 -0.223,0.094 -0.203,0.221 0.353,0.661 1.173,0.745 1.689,1.298 0.248,0.315 0.348,0.686 0.268,1.096 -0.102,0.182 -0.122,0.572 -0.434,0.537 m 1.68,-1.729 -0.09,-0.094 0.09,-0.071 0,0.165 z m -0.202,-0.317 0,-0.265 c 0.274,-0.747 1.161,-0.513 1.778,-0.702 0.166,-0.064 0.34,-0.288 0.471,-0.41 0.037,1.467 -1.561,0.784 -2.249,1.377 m -5.724,-1.791 c -0.006,-0.203 -0.027,-0.46 0.01,-0.599 0.554,0.061 1.336,-0.026 1.629,-0.278 l -0.047,0.613 c -0.309,0.516 -1.059,0.341 -1.592,0.264 m 12.492,-0.04 c -0.391,-0.059 -0.33,-0.67 -0.285,-0.899 0.461,0.287 1.082,0.424 1.578,0.32 0.023,-0.003 0.029,0.385 0.029,0.568 0,0 -0.728,0.22 -1.322,0.011 m -8.451,-0.736 c 0.002,-0.13 0.351,-0.346 0.504,-0.626 0.15,-0.28 0.131,-0.537 0.131,-0.54 1.234,-0.58 3.273,-0.742 4.529,-0.109 0.016,0.546 0.158,0.926 0.582,1.112 0.062,0.062 -0.039,0.194 -0.143,0.194 -0.869,-0.345 -1.689,-0.777 -2.718,-0.756 -1.121,-0.096 -1.924,0.692 -2.885,0.725 m -2.897,-0.095 c -0.236,-0.282 -0.629,-0.486 -0.666,-0.966 -0.007,-0.126 0.461,-0.128 0.469,-0.126 0.283,0.223 0.549,0.32 0.666,0.81 -0.023,0.149 -0.32,0.276 -0.469,0.282 m 2.797,-0.226 c 0,0 0,-0.737 -0.008,-0.737 0.165,0.059 0.438,0.12 0.461,0.212 0.032,0.121 -0.263,0.438 -0.453,0.525 m 5.578,-0.583 c 0.022,-0.044 0.205,-0.109 0.352,-0.127 0.143,0.018 0.023,0.54 0.043,0.648 -0.018,-10e-4 -0.395,-0.07 -0.395,-0.521 m -9.027,-0.443 c 0.018,-0.296 0.076,-0.595 0.324,-0.804 1.026,-0.456 2.367,-0.288 3.334,0.107 0.36,0.136 0.291,0.38 0.283,0.931 -1.158,-0.531 -2.734,-0.694 -3.941,-0.234 m 8.943,0.211 c 0,0 -0.097,-0.554 0.229,-0.867 1.172,-0.629 2.533,-0.666 3.529,-0.072 0.065,0.201 0.166,0.493 0.182,0.71 -1.096,-0.505 -2.965,-0.171 -3.94,0.229 m 3.635,-0.048 c 0.092,0 0.262,0.07 0.262,0.07 0.197,0.376 -0.705,0.892 -0.705,0.892 0,0 -0.194,-0.092 -0.266,-0.124 -0.248,-0.088 0.697,-0.838 0.709,-0.838"
       style="fill:#b2b1b1;fill-opacity:1;fill-rule:nonzero;stroke:none"
       id="path1542"
       inkscape:connector-curvature="0" /><path
       d="m 346.89972,301.97319 c -0.063,0 -0.122,0.006 -0.176,0.021 -0.051,0.003 -0.112,0.01 -0.174,0.01 -0.127,0 -0.428,-0.127 -0.906,-0.383 -0.481,-0.252 -1.086,-0.541 -1.817,-0.858 -0.732,-0.315 -1.566,-0.598 -2.5,-0.828 -0.933,-0.234 -1.908,-0.347 -2.926,-0.347 -1.339,0 -2.623,0.165 -3.853,0.507 -1.232,0.339 -2.32,0.865 -3.268,1.577 -0.945,0.709 -1.699,1.596 -2.254,2.658 -0.55,1.062 -0.828,2.306 -0.828,3.728 0,1.399 0.278,2.635 0.828,3.711 0.555,1.069 1.309,1.97 2.254,2.691 0.948,0.72 2.036,1.263 3.268,1.62 1.23,0.363 2.514,0.542 3.853,0.542 1.081,0 2.063,-0.084 2.944,-0.257 0.879,-0.165 1.65,-0.351 2.306,-0.543 0.659,-0.19 1.18,-0.372 1.563,-0.538 0.381,-0.173 0.613,-0.257 0.697,-0.257 0.11,0 0.197,0.051 0.276,0.161 0.07,0.1 0.129,0.191 0.171,0.254 l 0.479,-0.383 -2.484,-3.859 -0.319,0.224 c 0,0.063 -0.006,0.127 -0.015,0.191 -0.01,0.063 -0.026,0.135 -0.045,0.222 -0.045,0.23 -0.258,0.474 -0.639,0.715 -0.385,0.243 -0.857,0.462 -1.416,0.651 -0.564,0.191 -1.158,0.349 -1.783,0.477 -0.627,0.129 -1.205,0.192 -1.735,0.192 -0.894,0 -1.75,-0.128 -2.564,-0.383 -0.818,-0.253 -1.527,-0.624 -2.135,-1.11 -0.601,-0.489 -1.088,-1.09 -1.447,-1.797 -0.359,-0.713 -0.541,-1.523 -0.541,-2.43 0,-0.916 0.182,-1.73 0.541,-2.437 0.359,-0.716 0.846,-1.311 1.447,-1.799 0.608,-0.488 1.317,-0.857 2.135,-1.112 0.814,-0.256 1.67,-0.384 2.564,-0.384 0.678,0 1.389,0.078 2.131,0.237 0.744,0.159 1.422,0.365 2.039,0.603 0.616,0.25 1.129,0.524 1.543,0.831 0.414,0.309 0.621,0.599 0.621,0.875 0,0.153 -0.043,0.28 -0.128,0.381 l 0.445,0.255 2.105,-3.373 -0.257,-0.256 z"
       style="fill:#b01220;fill-opacity:1;fill-rule:nonzero;stroke:none"
       id="path1544"
       inkscape:connector-curvature="0" /><path
       d="m 352.17072,304.93219 0.318,-0.158 c 0,-0.194 0.043,-0.368 0.129,-0.514 0.149,-0.255 0.44,-0.505 0.875,-0.75 0.436,-0.246 0.934,-0.461 1.5,-0.652 0.561,-0.193 1.151,-0.347 1.766,-0.458 0.617,-0.121 1.17,-0.182 1.654,-0.182 0.365,0 0.832,0.028 1.403,0.086 0.576,0.049 1.138,0.163 1.689,0.33 0.553,0.175 1.029,0.402 1.434,0.705 0.404,0.297 0.607,0.689 0.607,1.179 0,0.484 -0.186,0.851 -0.559,1.077 -0.373,0.241 -0.859,0.408 -1.462,0.512 -0.61,0.108 -1.297,0.179 -2.073,0.211 -0.773,0.032 -1.566,0.078 -2.369,0.142 -0.808,0.066 -1.601,0.171 -2.373,0.318 -0.773,0.148 -1.467,0.394 -2.07,0.749 -0.608,0.348 -1.092,0.827 -1.467,1.436 -0.369,0.604 -0.555,1.398 -0.555,2.373 0,0.657 0.153,1.304 0.461,1.943 0.305,0.635 0.779,1.198 1.416,1.691 0.635,0.484 1.442,0.883 2.416,1.192 0.977,0.308 2.121,0.46 3.434,0.46 1.129,0 2.103,-0.084 2.933,-0.257 0.825,-0.165 1.541,-0.351 2.149,-0.543 0.603,-0.19 1.107,-0.372 1.521,-0.538 0.416,-0.173 0.762,-0.257 1.039,-0.257 0.293,0 0.506,0.064 0.633,0.193 l 0.381,-0.259 -2.191,-3.985 -0.319,0.128 c -0.045,0.3 -0.129,0.542 -0.256,0.733 -0.171,0.256 -0.453,0.505 -0.839,0.746 -0.395,0.244 -0.856,0.462 -1.387,0.653 -0.533,0.19 -1.104,0.346 -1.719,0.464 -0.615,0.116 -1.228,0.172 -1.848,0.172 -0.466,0 -0.947,-0.039 -1.443,-0.107 -0.498,-0.077 -0.949,-0.187 -1.353,-0.339 -0.403,-0.147 -0.739,-0.345 -1,-0.586 -0.268,-0.242 -0.397,-0.55 -0.397,-0.904 0,-0.511 0.184,-0.895 0.557,-1.15 0.369,-0.254 0.855,-0.446 1.463,-0.574 0.603,-0.129 1.295,-0.209 2.07,-0.255 0.771,-0.037 1.564,-0.093 2.375,-0.158 0.803,-0.063 1.594,-0.171 2.369,-0.332 0.774,-0.158 1.463,-0.411 2.07,-0.765 0.604,-0.351 1.09,-0.824 1.467,-1.416 0.369,-0.593 0.555,-1.371 0.555,-2.321 0,-1.108 -0.297,-2.004 -0.875,-2.709 -0.586,-0.697 -1.315,-1.249 -2.184,-1.65 -0.873,-0.409 -1.812,-0.674 -2.818,-0.817 -1.012,-0.134 -1.949,-0.201 -2.822,-0.201 -1.205,0 -2.223,0.067 -3.039,0.2 -0.819,0.143 -1.498,0.312 -2.037,0.51 -0.545,0.202 -0.973,0.384 -1.293,0.542 -0.319,0.156 -0.596,0.24 -0.827,0.24 -0.15,0 -0.287,-0.086 -0.416,-0.253 l -0.447,0.253 1.754,3.852 z"
       style="fill:#b01220;fill-opacity:1;fill-rule:nonzero;stroke:none"
       id="path1546"
       inkscape:connector-curvature="0" /><path
       d="m 371.27572,300.24519 c 0.551,0 0.829,0.189 0.829,0.573 l 0,14.463 c 0,0.381 -0.278,0.572 -0.829,0.572 l 0,0.571 5.288,0 0,-0.571 c -0.557,0 -0.831,-0.191 -0.831,-0.572 l 0,-14.463 c 0,-0.384 0.274,-0.573 0.831,-0.573 l 0,-0.575 -5.288,0 0,0.575 z"
       style="fill:#b01220;fill-opacity:1;fill-rule:nonzero;stroke:none"
       id="path1548"
       inkscape:connector-curvature="0" /><path
       d="m 398.69172,301.97319 c -0.062,0 -0.125,0.006 -0.175,0.021 -0.051,0.003 -0.11,0.01 -0.172,0.01 -0.127,0 -0.436,-0.127 -0.912,-0.383 -0.477,-0.252 -1.078,-0.541 -1.811,-0.858 -0.734,-0.315 -1.57,-0.598 -2.5,-0.828 -0.933,-0.234 -1.91,-0.347 -2.93,-0.347 -1.337,0 -2.623,0.165 -3.849,0.507 -1.233,0.339 -2.324,0.865 -3.274,1.577 -0.943,0.709 -1.691,1.596 -2.246,2.658 -0.556,1.062 -0.83,2.306 -0.83,3.728 0,1.399 0.274,2.635 0.83,3.711 0.555,1.069 1.303,1.97 2.246,2.691 0.95,0.72 2.041,1.263 3.274,1.62 1.226,0.363 2.512,0.542 3.849,0.542 1.083,0 2.061,-0.084 2.944,-0.257 0.885,-0.165 1.648,-0.351 2.305,-0.543 0.662,-0.19 1.183,-0.372 1.564,-0.538 0.381,-0.173 0.615,-0.257 0.701,-0.257 0.104,0 0.197,0.051 0.268,0.161 0.078,0.1 0.134,0.191 0.181,0.254 l 0.475,-0.383 -2.484,-3.859 -0.321,0.224 c 0,0.063 -0.008,0.127 -0.011,0.191 -0.012,0.063 -0.03,0.135 -0.053,0.222 -0.037,0.23 -0.256,0.474 -0.635,0.715 -0.381,0.243 -0.851,0.462 -1.416,0.651 -0.564,0.191 -1.156,0.349 -1.781,0.477 -0.625,0.129 -1.207,0.192 -1.737,0.192 -0.89,0 -1.746,-0.128 -2.562,-0.383 -0.816,-0.253 -1.533,-0.624 -2.133,-1.11 -0.603,-0.489 -1.09,-1.09 -1.453,-1.797 -0.355,-0.713 -0.537,-1.523 -0.537,-2.43 0,-0.916 0.182,-1.73 0.537,-2.437 0.363,-0.716 0.85,-1.311 1.453,-1.799 0.6,-0.488 1.317,-0.857 2.133,-1.112 0.816,-0.256 1.672,-0.384 2.562,-0.384 0.678,0 1.393,0.078 2.131,0.237 0.746,0.159 1.424,0.365 2.041,0.603 0.612,0.25 1.131,0.524 1.543,0.831 0.414,0.309 0.621,0.599 0.621,0.875 0,0.153 -0.045,0.28 -0.128,0.381 l 0.445,0.255 2.099,-3.373 -0.252,-0.256 z"
       style="fill:#b01220;fill-opacity:1;fill-rule:nonzero;stroke:none"
       id="path1550"
       inkscape:connector-curvature="0" /></g></svg>